
<svg xmlns="http://www.w3.org/2000/svg" version="1.1" xmlns:xlink="http://www.w3.org/1999/xlink" preserveAspectRatio="none" x="0px" y="0px" width="1024px" height="1024px" viewBox="0 0 1024 1024">
<defs>
<linearGradient id="Gradient_1" gradientUnits="userSpaceOnUse" x1="423.23749999999995" y1="264.15" x2="497.5625" y2="264.15" spreadMethod="pad">
<stop  offset="20.392156862745097%" stop-color="#CFCFDA"/>

<stop  offset="28.235294117647058%" stop-color="#C8C9D6"/>

<stop  offset="39.21568627450981%" stop-color="#B4B8CA"/>

<stop  offset="48.23529411764706%" stop-color="#A0A6BF"/>

<stop  offset="59.21568627450981%" stop-color="#8991AF"/>
</linearGradient>

<linearGradient id="Gradient_2" gradientUnits="userSpaceOnUse" x1="474.83750000000003" y1="287.35" x2="499.2625" y2="287.35" spreadMethod="pad">
<stop  offset="14.509803921568627%" stop-color="#A0A6BF"/>

<stop  offset="35.294117647058826%" stop-color="#B4B8CA"/>

<stop  offset="61.568627450980394%" stop-color="#C8C9D6"/>

<stop  offset="79.6078431372549%" stop-color="#CFCFDA"/>
</linearGradient>

<linearGradient id="Gradient_3" gradientUnits="userSpaceOnUse" x1="453.1875" y1="317.9875" x2="469.9125" y2="289.0125" spreadMethod="pad">
<stop  offset="40.78431372549019%" stop-color="#8991AF"/>

<stop  offset="51.76470588235294%" stop-color="#A0A6BF"/>

<stop  offset="60.78431372549019%" stop-color="#B4B8CA"/>

<stop  offset="71.76470588235294%" stop-color="#C8C9D6"/>

<stop  offset="79.6078431372549%" stop-color="#CFCFDA"/>
</linearGradient>

<linearGradient id="Gradient_4" gradientUnits="userSpaceOnUse" x1="456.45" y1="319.8" x2="473.15000000000003" y2="290.90000000000003" spreadMethod="pad">
<stop  offset="0%" stop-color="#C4C7D7"/>

<stop  offset="6.2745098039215685%" stop-color="#C2C5D6"/>

<stop  offset="9.803921568627452%" stop-color="#BABED1"/>

<stop  offset="12.156862745098039%" stop-color="#ADB2C7"/>

<stop  offset="13.72549019607843%" stop-color="#A0A6BF"/>

<stop  offset="22.745098039215687%" stop-color="#B9BDCF"/>

<stop  offset="32.549019607843135%" stop-color="#CBCEDC"/>

<stop  offset="42.745098039215684%" stop-color="#D6D8E3"/>

<stop  offset="53.72549019607843%" stop-color="#D9DBE6"/>

<stop  offset="55.294117647058826%" stop-color="#DCDEE8"/>

<stop  offset="56.470588235294116%" stop-color="#E7E8EF"/>

<stop  offset="57.254901960784316%" stop-color="#EFF0F5"/>

<stop  offset="97.25490196078431%" stop-color="#EFF0F5"/>

<stop  offset="97.25490196078431%" stop-color="#EFF0F5" stop-opacity="0"/>

<stop  offset="100%" stop-color="#000000" stop-opacity="0"/>
</linearGradient>

<linearGradient id="Gradient_5" gradientUnits="userSpaceOnUse" x1="456.45" y1="319.8" x2="473.15000000000003" y2="290.90000000000003" spreadMethod="pad">
<stop  offset="0%" stop-color="#000000" stop-opacity="0"/>

<stop  offset="97.25490196078431%" stop-color="#EFF0F5" stop-opacity="0"/>

<stop  offset="97.25490196078431%" stop-color="#EFF0F5"/>

<stop  offset="97.25490196078431%" stop-color="#EEEFF4"/>

<stop  offset="98.03921568627452%" stop-color="#E7E8EF"/>

<stop  offset="100%" stop-color="#E5E6EE"/>
</linearGradient>

<linearGradient id="Gradient_6" gradientUnits="userSpaceOnUse" x1="405.88750000000005" y1="290.41249999999997" x2="422.3125" y2="261.9875" spreadMethod="pad">
<stop  offset="0%" stop-color="#C4C7D7"/>

<stop  offset="6.2745098039215685%" stop-color="#C2C5D6"/>

<stop  offset="9.803921568627452%" stop-color="#BABED1"/>

<stop  offset="12.156862745098039%" stop-color="#ADB2C7"/>

<stop  offset="13.72549019607843%" stop-color="#A0A6BF"/>

<stop  offset="22.745098039215687%" stop-color="#B9BDCF"/>

<stop  offset="32.549019607843135%" stop-color="#CBCEDC"/>

<stop  offset="42.745098039215684%" stop-color="#D6D8E3"/>

<stop  offset="53.72549019607843%" stop-color="#D9DBE6"/>

<stop  offset="55.294117647058826%" stop-color="#DCDEE8"/>

<stop  offset="56.470588235294116%" stop-color="#E7E8EF"/>

<stop  offset="57.254901960784316%" stop-color="#EFF0F5"/>

<stop  offset="97.25490196078431%" stop-color="#EFF0F5"/>

<stop  offset="97.25490196078431%" stop-color="#EFF0F5" stop-opacity="0"/>

<stop  offset="100%" stop-color="#000000" stop-opacity="0"/>
</linearGradient>

<linearGradient id="Gradient_7" gradientUnits="userSpaceOnUse" x1="405.88750000000005" y1="290.41249999999997" x2="422.3125" y2="261.9875" spreadMethod="pad">
<stop  offset="0%" stop-color="#000000" stop-opacity="0"/>

<stop  offset="97.25490196078431%" stop-color="#EFF0F5" stop-opacity="0"/>

<stop  offset="97.25490196078431%" stop-color="#EFF0F5"/>

<stop  offset="97.25490196078431%" stop-color="#EEEFF4"/>

<stop  offset="98.03921568627452%" stop-color="#E7E8EF"/>

<stop  offset="100%" stop-color="#E5E6EE"/>
</linearGradient>

<linearGradient id="Gradient_8" gradientUnits="userSpaceOnUse" x1="409.2125" y1="293.025" x2="426.2875" y2="263.475" spreadMethod="pad">
<stop  offset="40.78431372549019%" stop-color="#8991AF"/>

<stop  offset="51.76470588235294%" stop-color="#A0A6BF"/>

<stop  offset="60.78431372549019%" stop-color="#B4B8CA"/>

<stop  offset="71.76470588235294%" stop-color="#C8C9D6"/>

<stop  offset="79.6078431372549%" stop-color="#CFCFDA"/>
</linearGradient>

<g id="Layer0_0_MEMBER_0_MEMBER_0_FILL">
<path fill="#F5F2E8" stroke="none" d="
M 446.4 321.7
Q 450.65 324.15 455.55 324.15 460.4 324.15 464.65 321.7
L 472.1 317.4
Q 474.3 316.15 474.3 313.6 474.3 311.1 472.1 309.8
L 468.9 307.8
Q 464.65 305.35 459.8 305.35 454.9 305.35 450.65 307.8
L 443.2 312.1
Q 441 313.4 441 315.9 441 318.45 443.2 319.7
L 446.4 321.7 Z"/>
</g>

<g id="Layer0_0_MEMBER_0_MEMBER_1_FILL">
<path fill="#F5F2E8" stroke="none" d="
M 431.25 293.8
Q 433.45 292.55 433.45 290 433.45 287.5 431.25 286.2
L 428.05 284.2
Q 423.8 281.75 418.95 281.75 414.05 281.75 409.8 284.2
L 402.35 288.5
Q 400.15 289.8 400.15 292.3 400.15 294.85 402.35 296.1
L 405.55 298.1
Q 409.8 300.55 414.7 300.55 419.55 300.55 423.8 298.1
L 431.25 293.8 Z"/>
</g>

<g id="Layer0_0_MEMBER_0_MEMBER_2_FILL">
<path fill="#F5F2E8" stroke="none" d="
M 423.2 276.4
Q 426.65 274.3 429.45 272.9 440.85 267 453.15 266.4 464.9 265.8 474.75 271.15
L 483.15 275.8
Q 489.85 279.9 491.2 284.65 489.6 291.05 480.25 297.2 477.2 299.2 474.15 300.75
L 475.45 301.5 476.15 301.15
Q 475.9 301.6 475.4 303.7 475 305.15 474.15 305.6
L 475.45 306.35
Q 479.15 304.35 481.6 302.7 492.15 295.9 493.25 288.35 493.55 286.6 493.05 284.6
L 493.25 283.55
Q 494.3 276.35 484.5 270.25
L 476 265.6
Q 465.55 259.85 452.95 260.55 440.1 261.15 428.2 267.3 424.9 268.95 421.9 270.8
L 423.2 271.55
Q 423.95 271.1 423.8 272.4 423.65 274.2 423.8 274.5
L 421.9 275.65 423.2 276.4 Z"/>
</g>

<g id="Layer0_0_MEMBER_1_MEMBER_0_FILL">
<path fill="url(#Gradient_1)" stroke="none" d="
M 434.95 257.8
Q 431.35 259.75 428.2 262
L 425.75 263.85 429.15 261.85 429.15 268.2
Q 426.9 269.55 424.85 270.95 423.3 272.1 423.2 272.15
L 424.7 272.8
Q 424.75 272.8 427.6 270.75 431.3 268.3 435.35 266.25 446.95 260.35 459.05 259.75 470.8 259.2 480.65 264.55
L 489.05 269.2
Q 494.7 272.65 496.55 276.6
L 496.9 276 497.55 276.85 497.55 269.9
Q 497.05 268.15 495.55 266 492.65 261.75 488 259.7 481.3 255.9 477.05 254.15 469.5 251.15 457.95 251.45 446.5 251.75 434.95 257.8 Z"/>
</g>

<g id="Layer0_0_MEMBER_1_MEMBER_1_FILL">
<path fill="url(#Gradient_2)" stroke="none" d="
M 481.9 291.1
L 481.4 291.75 481.4 298.25
Q 479.05 299.55 476.75 300.65 474.9 301.5 474.8 301.5
L 475.9 302.35
Q 477.1 301.85 479.6 300.6 483.8 298.5 487.5 296.1 498.05 289.15 499.15 281.75
L 499.25 280.8 499.25 272.35 495.25 280.75 481.9 291.1 Z"/>
</g>

<g id="Layer0_0_MEMBER_1_MEMBER_2_FILL">
<path fill="#E8E7EC" stroke="none" d="
M 422.15 272.45
L 424.65 271.25 428.4 268.4 428.4 260.45 424.65 261.85 422.15 263.55 422.15 272.45 Z"/>
</g>

<g id="Layer0_0_MEMBER_1_MEMBER_3_MEMBER_0_FILL">
<path fill="#E8E7EC" stroke="none" d="
M 434.1 257.55
Q 430.15 259.55 427.85 261.1
L 429.15 261.85
Q 432.2 259.9 435.35 258.3 446.85 252.45 459.05 251.85 470.8 251.25 480.65 256.6
L 489.05 261.25
Q 498.3 267 497.35 273.7 496.25 280.8 486.15 287.45 483.25 289.35 480.1 291
L 481.4 291.75
Q 484.9 289.9 487.5 288.15 498.05 281.2 499.15 273.8 500.2 266.6 490.4 260.55
L 481.9 255.85
Q 471.45 250.1 458.85 250.8 446 251.4 434.1 257.55 Z"/>
</g>

<g id="Layer0_0_MEMBER_1_MEMBER_4_FILL">
<path fill="#F6F6F8" stroke="none" d="
M 428.4 260.45
L 424.65 261.85 422.15 263.55 424.8 265.65 427.35 263.95 430 261.55 428.4 260.45 Z"/>
</g>

<g id="Layer0_0_MEMBER_1_MEMBER_5_FILL">
<path fill="#CFCFDA" stroke="none" d="
M 424.8 274.55
L 427.35 273.35 430 269.5 430 261.55 427.35 263.95 424.8 265.65 424.8 274.55 Z"/>
</g>

<g id="Layer0_0_MEMBER_1_MEMBER_6_FILL">
<path fill="#A0A6BF" stroke="none" d="
M 476.25 291.6
L 473.75 293.3 473.75 302.2 476.25 301 479.95 298.15 479.95 290.15 476.25 291.6 Z"/>
</g>

<g id="Layer0_0_MEMBER_1_MEMBER_7_FILL">
<path fill="#F6F6F8" stroke="none" d="
M 479.95 290.15
L 476.25 291.6 473.75 293.3 476.4 295.4 481.9 291.65 479.95 290.15 Z"/>
</g>

<g id="Layer0_0_MEMBER_1_MEMBER_8_FILL">
<path fill="#E8E7EC" stroke="none" d="
M 481.9 291.65
L 476.4 295.4 476.4 304.3 478.9 303.1 481.9 299.6 481.9 291.65 Z"/>
</g>

<g id="Layer0_0_MEMBER_1_MEMBER_9_FILL">
<path fill="#3D424C" stroke="none" d="
M 456.65 286.8
Q 451.65 289.7 448.1 295.8 444.55 301.9 444.55 307.7 444.55 313.5 448.1 315.5 451.65 317.5 456.65 314.6 461.7 311.7 465.25 305.6 468.8 299.45 468.8 293.7 468.8 287.95 465.25 285.95 461.7 283.9 456.65 286.8 Z"/>
</g>

<g id="Layer0_0_MEMBER_1_MEMBER_10_FILL">
<path fill="#3D424C" stroke="none" d="
M 469.45 288.25
L 465.3 285.95 447.8 315.3 453.05 318.2 469.45 288.25 Z"/>
</g>

<g id="Layer0_0_MEMBER_1_MEMBER_11_FILL">
<path fill="#464B54" stroke="none" d="
M 469.05 288.1
Q 465.5 286.05 460.5 288.95 455.5 291.85 451.9 298 448.35 304.1 448.35 309.85 448.35 315.6 451.9 317.65 455.45 319.7 460.5 316.8 465.55 313.9 469.05 307.75 472.6 301.65 472.6 295.85 472.6 290.1 469.05 288.1 Z"/>
</g>

<g id="Layer0_0_MEMBER_1_MEMBER_12_FILL">
<path fill="#41464F" stroke="none" d="
M 469.7 288.4
Q 466.15 286.35 461.1 289.25 456.1 292.15 452.55 298.3 449 304.4 449 310.15 449 315.95 452.55 317.95 456.1 320 461.1 317.1 466.15 314.15 469.7 308.05 473.25 301.95 473.25 296.2 473.25 290.45 469.7 288.4 Z"/>
</g>

<g id="Layer0_0_MEMBER_1_MEMBER_13_FILL">
<path fill="url(#Gradient_3)" stroke="none" d="
M 472.6 292.3
L 473.4 291 470.5 289.45
Q 468.85 288.2 466.55 288.3 464.15 288.4 461.5 289.9 456.6 292.75 453.1 298.75 449.65 304.75 449.65 310.35 449.65 313.4 450.75 315.5 451.85 317.5 453.8 318.3
L 456.65 319.95 457.4 318.65
Q 459.4 318.35 461.5 317.1 466.4 314.3 469.9 308.3 473.4 302.3 473.4 296.65 473.4 294.3 472.6 292.3 Z"/>
</g>

<g id="Layer0_0_MEMBER_1_MEMBER_14_MEMBER_0_FILL">
<path fill="url(#Gradient_4)" stroke="none" d="
M 470.65 290.15
Q 467.95 289.95 464.8 291.75 459.9 294.55 456.4 300.55 452.95 306.55 452.95 312.2 452.95 315.3 454.15 317.4 455.25 319.45 457.25 320.2 457.85 320.4 458.55 320.5
L 462.35 321.4 463.6 319.6 464.8 318.95
Q 469.15 316.45 472.45 311.35 475.75 306.3 476.5 301.05
L 478.6 297.95 474.85 292.3
Q 473.25 290.3 470.65 290.15 Z"/>
</g>

<g id="Layer0_0_MEMBER_1_MEMBER_14_MEMBER_1_FILL">
<path fill="url(#Gradient_5)" stroke="none" d="
M 470.65 290.15
Q 467.95 289.95 464.8 291.75 459.9 294.55 456.4 300.55 452.95 306.55 452.95 312.2 452.95 315.3 454.15 317.4 455.25 319.45 457.25 320.2 457.85 320.4 458.55 320.5
L 462.35 321.4 463.6 319.6 464.8 318.95
Q 469.15 316.45 472.45 311.35 475.75 306.3 476.5 301.05
L 478.6 297.95 474.85 292.3
Q 473.25 290.3 470.65 290.15 Z"/>
</g>

<g id="Layer0_0_MEMBER_1_MEMBER_15_FILL">
<path fill="#E8E7EC" stroke="none" d="
M 476 294.6
Q 472.85 292.8 468.4 295.35 463.95 297.95 460.8 303.4 457.65 308.8 457.65 313.95 457.65 319.05 460.8 320.85 463.95 322.65 468.4 320.05 472.85 317.5 476 312.05 479.15 306.6 479.15 301.5 479.15 296.4 476 294.6 Z"/>
</g>

<g id="Layer0_0_MEMBER_1_MEMBER_16_FILL">
<path fill="#84D1ED" stroke="none" d="
M 462.05 304.1
Q 459.45 308.65 459.45 312.9 459.45 317.15 462.05 318.65 464.7 320.15 468.4 318 472.1 315.85 474.75 311.35 477.35 306.8 477.35 302.55 477.35 298.25 474.75 296.8 472.1 295.3 468.4 297.45 464.7 299.6 462.05 304.1 Z"/>
</g>

<g id="Layer0_0_MEMBER_1_MEMBER_17_FILL">
<path fill="#E8E7EC" stroke="none" d="
M 462.7 304.45
Q 460.35 308.55 460.35 312.35 460.35 316.2 462.7 317.5 465.05 318.85 468.4 316.95 471.75 315 474.1 310.95 476.45 306.9 476.45 303.1 476.45 299.3 474.1 297.95 471.75 296.6 468.4 298.5 465.05 300.4 462.7 304.45 Z"/>
</g>

<g id="Layer0_0_MEMBER_1_MEMBER_18_FILL">
<path fill="#EFEEF2" stroke="none" d="
M 468.4 307.7
L 463.3 303.55
Q 462.5 304.8 462.05 305.75
L 468.4 308 472.5 313.25
Q 473.55 311.95 474.55 310.1
L 468.4 307.7 Z"/>
</g>

<g id="Layer0_0_MEMBER_1_MEMBER_19_FILL">
<path fill="#F9F9FA" stroke="none" d="
M 475.45 299.25
Q 474.15 297.25 471.6 297.4
L 468.4 307.7 461.35 316.2
Q 462.6 318.05 464.8 318.05
L 468.4 308 475.45 299.25 Z"/>
</g>

<g id="Layer0_0_MEMBER_1_MEMBER_20_FILL">
<path fill="#CFCFDA" stroke="none" d="
M 468.4 307.8
L 476.4 302.7
Q 476.4 301.45 476 300.4
L 468.4 307.7 460.35 312.3 460.35 312.35
Q 460.35 313.35 460.6 314.45
L 468.4 307.8 Z"/>
</g>

<g id="Layer0_0_MEMBER_1_MEMBER_21_MEMBER_0_MEMBER_0_FILL">
<path fill="url(#Gradient_6)" stroke="none" d="
M 424.8 270.1
Q 424.8 267 423.4 264.85
L 424.4 263.15 419.65 262.55 419.6 262.55
Q 417.05 262.25 414 264 409.55 266.55 406.4 272 403.25 277.45 403.25 282.55 403.25 286.05 404.95 288.15
L 404.95 288.2 408.05 291.65 408.9 290.15
Q 411.35 290.25 414 288.65 418.45 286.1 421.65 280.65 424.8 275.25 424.8 270.1 Z"/>
</g>

<g id="Layer0_0_MEMBER_1_MEMBER_21_MEMBER_0_MEMBER_1_FILL">
<path fill="url(#Gradient_7)" stroke="none" d="
M 424.8 270.1
Q 424.8 267 423.4 264.85
L 424.4 263.15 419.65 262.55 419.6 262.55
Q 417.05 262.25 414 264 409.55 266.55 406.4 272 403.25 277.45 403.25 282.55 403.25 286.05 404.95 288.15
L 404.95 288.2 408.05 291.65 408.9 290.15
Q 411.35 290.25 414 288.65 418.45 286.1 421.65 280.65 424.8 275.25 424.8 270.1 Z"/>
</g>

<g id="Layer0_0_MEMBER_1_MEMBER_21_MEMBER_1_FILL">
<path fill="url(#Gradient_8)" stroke="none" d="
M 429.1 267.75
L 430.3 265.75 425.8 263.6 425.8 263.65
Q 422.4 261.95 417.75 264.65 412.85 267.45 409.35 273.45 405.9 279.45 405.9 285.1 405.9 290.5 409.15 292.6
L 412.7 295.05 413.7 293.35
Q 415.85 293 417.75 291.85 422.65 289.05 426.15 283.05 429.6 277.05 429.6 271.4 429.6 269.25 429.1 267.75 Z"/>
</g>

<g id="Layer0_0_MEMBER_1_MEMBER_21_MEMBER_2_FILL">
<path fill="#CFCFDA" stroke="none" d="
M 412.65 275.3
Q 409.2 281.3 409.2 286.95 409.2 292.55 412.65 294.55 416.15 296.5 421.05 293.7 425.95 290.85 429.45 284.85 432.9 278.9 432.9 273.25 432.9 267.6 429.45 265.6 425.95 263.65 421.05 266.45 416.15 269.3 412.65 275.3 Z"/>
</g>

<g id="Layer0_0_MEMBER_1_MEMBER_21_MEMBER_3_FILL">
<path fill="#3D424C" stroke="none" d="
M 412.9 275.5
Q 409.35 281.6 409.35 287.4 409.35 293.15 412.9 295.15 416.45 297.2 421.45 294.3 426.45 291.4 430.05 285.3 433.6 279.15 433.6 273.4 433.6 267.65 430.05 265.6 426.5 263.6 421.45 266.5 416.45 269.4 412.9 275.5 Z"/>
</g>

<g id="Layer0_0_MEMBER_1_MEMBER_21_MEMBER_4_FILL">
<path fill="#3D424C" stroke="none" d="
M 430.3 265.75
L 412.45 294.9 416.05 297 433.9 267.9 430.3 265.75 Z"/>
</g>

<g id="Layer0_0_MEMBER_1_MEMBER_21_MEMBER_5_FILL">
<path fill="#41464F" stroke="none" d="
M 416 277.3
Q 412.45 283.4 412.45 289.15 412.45 294.95 416 296.95 419.55 299 424.55 296.1 429.6 293.15 433.15 287.05 436.7 280.9 436.7 275.15 436.7 269.4 433.15 267.4 429.6 265.35 424.55 268.25 419.55 271.15 416 277.3 Z"/>
</g>

<g id="Layer0_0_MEMBER_1_MEMBER_21_MEMBER_6_FILL">
<path fill="#3D424C" stroke="none" d="
M 418.65 278.95
Q 416.1 283.35 416.1 287.5 416.1 291.65 418.65 293.1 421.2 294.55 424.85 292.5 428.45 290.4 431.05 286 433.6 281.55 433.6 277.4 433.6 273.25 431.05 271.8 428.45 270.35 424.85 272.45 421.2 274.5 418.65 278.95 Z"/>
</g>

<g id="Layer0_0_MEMBER_1_MEMBER_21_MEMBER_7_FILL">
<path fill="#393842" stroke="none" d="
M 419.05 279.05
Q 416.8 282.95 416.8 286.65 416.8 290.35 419.05 291.65 421.35 292.9 424.55 291.05 427.75 289.2 430.05 285.3 432.3 281.4 432.3 277.7 432.3 274 430.05 272.7 427.75 271.4 424.55 273.25 421.35 275.1 419.05 279.05 Z"/>
</g>

<g id="Layer0_0_MEMBER_1_MEMBER_21_MEMBER_8_FILL">
<path fill="#3D424C" stroke="none" d="
M 419.05 279
Q 417.1 282.45 417.1 285.65 417.1 288.85 419.05 289.95 421.05 291.05 423.8 289.45 426.6 287.9 428.6 284.5 430.55 281.1 430.55 277.85 430.55 274.65 428.6 273.55 426.6 272.45 423.8 274 421 275.6 419.05 279 Z"/>
</g>
</defs>

<g transform="matrix( 7, 0, 0, 7, -2635.9,-1500.05) ">
<use xlink:href="#Layer0_0_MEMBER_0_MEMBER_0_FILL"/>
</g>

<g transform="matrix( 7, 0, 0, 7, -2635.9,-1500.05) ">
<use xlink:href="#Layer0_0_MEMBER_0_MEMBER_1_FILL"/>
</g>

<g transform="matrix( 7, 0, 0, 7, -2635.9,-1500.05) ">
<use xlink:href="#Layer0_0_MEMBER_0_MEMBER_2_FILL"/>
</g>

<g transform="matrix( 7, 0, 0, 7, -2635.9,-1500.05) ">
<use xlink:href="#Layer0_0_MEMBER_1_MEMBER_0_FILL"/>
</g>

<g transform="matrix( 7, 0, 0, 7, -2635.9,-1500.05) ">
<use xlink:href="#Layer0_0_MEMBER_1_MEMBER_1_FILL"/>
</g>

<g transform="matrix( 7, 0, 0, 7, -2635.9,-1500.05) ">
<use xlink:href="#Layer0_0_MEMBER_1_MEMBER_2_FILL"/>
</g>

<g transform="matrix( 7, 0, 0, 7, -2635.9,-1500.05) ">
<use xlink:href="#Layer0_0_MEMBER_1_MEMBER_3_MEMBER_0_FILL"/>
</g>

<g transform="matrix( 7, 0, 0, 7, -2635.9,-1500.05) ">
<use xlink:href="#Layer0_0_MEMBER_1_MEMBER_4_FILL"/>
</g>

<g transform="matrix( 7, 0, 0, 7, -2635.9,-1500.05) ">
<use xlink:href="#Layer0_0_MEMBER_1_MEMBER_5_FILL"/>
</g>

<g transform="matrix( 7, 0, 0, 7, -2635.9,-1500.05) ">
<use xlink:href="#Layer0_0_MEMBER_1_MEMBER_6_FILL"/>
</g>

<g transform="matrix( 7, 0, 0, 7, -2635.9,-1500.05) ">
<use xlink:href="#Layer0_0_MEMBER_1_MEMBER_7_FILL"/>
</g>

<g transform="matrix( 7, 0, 0, 7, -2635.9,-1500.05) ">
<use xlink:href="#Layer0_0_MEMBER_1_MEMBER_8_FILL"/>
</g>

<g transform="matrix( 7, 0, 0, 7, -2635.9,-1500.05) ">
<use xlink:href="#Layer0_0_MEMBER_1_MEMBER_9_FILL"/>
</g>

<g transform="matrix( 7, 0, 0, 7, -2635.9,-1500.05) ">
<use xlink:href="#Layer0_0_MEMBER_1_MEMBER_10_FILL"/>
</g>

<g transform="matrix( 7, 0, 0, 7, -2635.9,-1500.05) ">
<use xlink:href="#Layer0_0_MEMBER_1_MEMBER_11_FILL"/>
</g>

<g transform="matrix( 7, 0, 0, 7, -2635.9,-1500.05) ">
<use xlink:href="#Layer0_0_MEMBER_1_MEMBER_12_FILL"/>
</g>

<g transform="matrix( 7, 0, 0, 7, -2635.9,-1500.05) ">
<use xlink:href="#Layer0_0_MEMBER_1_MEMBER_13_FILL"/>
</g>

<g transform="matrix( 7, 0, 0, 7, -2635.9,-1500.05) ">
<use xlink:href="#Layer0_0_MEMBER_1_MEMBER_14_MEMBER_0_FILL"/>
</g>

<g transform="matrix( 7, 0, 0, 7, -2635.9,-1500.05) ">
<use xlink:href="#Layer0_0_MEMBER_1_MEMBER_14_MEMBER_1_FILL"/>
</g>

<g transform="matrix( 7, 0, 0, 7, -2635.9,-1500.05) ">
<use xlink:href="#Layer0_0_MEMBER_1_MEMBER_15_FILL"/>
</g>

<g transform="matrix( 7, 0, 0, 7, -2635.9,-1500.05) ">
<use xlink:href="#Layer0_0_MEMBER_1_MEMBER_16_FILL"/>
</g>

<g transform="matrix( 7, 0, 0, 7, -2635.9,-1500.05) ">
<use xlink:href="#Layer0_0_MEMBER_1_MEMBER_17_FILL"/>
</g>

<g transform="matrix( 7, 0, 0, 7, -2635.9,-1500.05) ">
<use xlink:href="#Layer0_0_MEMBER_1_MEMBER_18_FILL"/>
</g>

<g transform="matrix( 7, 0, 0, 7, -2635.9,-1500.05) ">
<use xlink:href="#Layer0_0_MEMBER_1_MEMBER_19_FILL"/>
</g>

<g transform="matrix( 7, 0, 0, 7, -2635.9,-1500.05) ">
<use xlink:href="#Layer0_0_MEMBER_1_MEMBER_20_FILL"/>
</g>

<g transform="matrix( 7, 0, 0, 7, -2635.9,-1500.05) ">
<use xlink:href="#Layer0_0_MEMBER_1_MEMBER_21_MEMBER_0_MEMBER_0_FILL"/>
</g>

<g transform="matrix( 7, 0, 0, 7, -2635.9,-1500.05) ">
<use xlink:href="#Layer0_0_MEMBER_1_MEMBER_21_MEMBER_0_MEMBER_1_FILL"/>
</g>

<g transform="matrix( 7, 0, 0, 7, -2635.9,-1500.05) ">
<use xlink:href="#Layer0_0_MEMBER_1_MEMBER_21_MEMBER_1_FILL"/>
</g>

<g transform="matrix( 7, 0, 0, 7, -2635.9,-1500.05) ">
<use xlink:href="#Layer0_0_MEMBER_1_MEMBER_21_MEMBER_2_FILL"/>
</g>

<g transform="matrix( 7, 0, 0, 7, -2635.9,-1500.05) ">
<use xlink:href="#Layer0_0_MEMBER_1_MEMBER_21_MEMBER_3_FILL"/>
</g>

<g transform="matrix( 7, 0, 0, 7, -2635.9,-1500.05) ">
<use xlink:href="#Layer0_0_MEMBER_1_MEMBER_21_MEMBER_4_FILL"/>
</g>

<g transform="matrix( 7, 0, 0, 7, -2635.9,-1500.05) ">
<use xlink:href="#Layer0_0_MEMBER_1_MEMBER_21_MEMBER_5_FILL"/>
</g>

<g transform="matrix( 7, 0, 0, 7, -2635.9,-1500.05) ">
<use xlink:href="#Layer0_0_MEMBER_1_MEMBER_21_MEMBER_6_FILL"/>
</g>

<g transform="matrix( 7, 0, 0, 7, -2635.9,-1500.05) ">
<use xlink:href="#Layer0_0_MEMBER_1_MEMBER_21_MEMBER_7_FILL"/>
</g>

<g transform="matrix( 7, 0, 0, 7, -2635.9,-1500.05) ">
<use xlink:href="#Layer0_0_MEMBER_1_MEMBER_21_MEMBER_8_FILL"/>
</g>
</svg>
