<?xml version="1.0" standalone="no"?><!DOCTYPE svg PUBLIC "-//W3C//DTD SVG 1.1//EN" "http://www.w3.org/Graphics/SVG/1.1/DTD/svg11.dtd"><svg t="1612621834693" class="icon" viewBox="0 0 1024 1024" version="1.1" xmlns="http://www.w3.org/2000/svg" p-id="9685" xmlns:xlink="http://www.w3.org/1999/xlink" width="200" height="200"><defs><style type="text/css"></style></defs><path d="M523.636364 344.669091V279.272727a368.64 368.64 0 0 0-267.636364-3.258182h181.061818zM244.363636 279.272727a372.363636 372.363636 0 1 0 484.770909 485.469091H244.363636zM570.181818 302.545455v66.094545h83.781818A372.363636 372.363636 0 0 0 570.181818 302.545455z" fill="#FFEFDB" p-id="9686"></path><path d="M691.898182 415.650909h-153.134546l-118.458181-93.090909H290.909091v395.636364H744.727273a368.872727 368.872727 0 0 0-52.363637-302.545455z" fill="#FFEFDB" p-id="9687"></path><path d="M640 159.418182h232.727273v46.545454h-232.727273zM640 252.741818h232.727273v46.545455h-232.727273z" fill="#FF9E1F" p-id="9688"></path><path d="M523.636364 19.549091v325.818182l-87.272728-68.654546H244.363636v488.727273h605.090909v-209.454545h139.636364V19.549091z m279.272727 488.727273v209.454545h-512v-395.636364h129.396364l118.458181 93.09091H802.909091z m139.636364 0h-93.09091v-139.636364h-279.272727v-302.545455h372.363637z" fill="#040405" p-id="9689"></path></svg>