
<svg xmlns="http://www.w3.org/2000/svg" version="1.1" xmlns:xlink="http://www.w3.org/1999/xlink" preserveAspectRatio="none" x="0px" y="0px" width="1024px" height="1024px" viewBox="0 0 1024 1024">
<defs>
<linearGradient id="Gradient_1" gradientUnits="userSpaceOnUse" x1="294.85" y1="187.6" x2="388.15" y2="187.6" spreadMethod="pad">
<stop  offset="0%" stop-color="#C4C8D7"/>

<stop  offset="0.39215686274509803%" stop-color="#C0C5D5"/>

<stop  offset="0.7843137254901961%" stop-color="#B4B9CD"/>

<stop  offset="1.5686274509803921%" stop-color="#A1A7BF"/>

<stop  offset="1.5686274509803921%" stop-color="#A0A6BF"/>

<stop  offset="30.58823529411765%" stop-color="#A0A6BF"/>

<stop  offset="30.58823529411765%" stop-color="#A4AAC1"/>

<stop  offset="32.549019607843135%" stop-color="#B6BBCE"/>

<stop  offset="34.90196078431372%" stop-color="#C1C5D5"/>

<stop  offset="37.254901960784316%" stop-color="#C4C8D7"/>

<stop  offset="94.90196078431373%" stop-color="#C4C8D7"/>

<stop  offset="100%" stop-color="#C4C8D7"/>
</linearGradient>

<g id="Layer0_0_MEMBER_0_FILL">
<path fill="#F5F2E8" stroke="none" d="
M 356.7 161.5
Q 355.15 160.55 352.7 160.7 350.25 160.8 348.4 161.85
L 293.7 193.45
Q 291.85 194.5 291.7 195.9 291.5 197.3 293.1 198.2
L 320 213.7
Q 321.55 214.65 324 214.55 326.45 214.45 328.25 213.4
L 383 181.8
Q 384.8 180.75 385 179.35 385.15 177.95 383.6 177
L 356.7 161.5 Z"/>
</g>

<g id="Layer0_0_MEMBER_1_MEMBER_0_FILL">
<path fill="#F5F2E8" stroke="none" d="
M 326.9 214.55
L 326.9 202 323.4 214.55 326.9 214.55 Z"/>
</g>

<g id="Layer0_0_MEMBER_1_MEMBER_1_FILL">
<path fill="url(#Gradient_1)" stroke="none" d="
M 355.85 160.7
Q 353.4 160.8 351.55 161.85
L 296.85 193.45 296.55 193.65 294.85 193.1 294.85 196.2
Q 294.85 197.4 296.25 198.2
L 323.15 213.75
Q 324.75 214.65 327.15 214.55 329.55 214.45 331.4 213.4
L 386.1 181.8
Q 388.05 180.7 388.15 179.15
L 388.15 176.15 386.45 176.85 359.85 161.5
Q 358.25 160.6 355.85 160.7 Z"/>
</g>

<g id="Layer0_0_MEMBER_1_MEMBER_2_FILL">
<path fill="#EFF0F5" stroke="none" d="
M 359.85 158.55
Q 358.3 157.6 355.85 157.75 353.4 157.85 351.55 158.9
L 296.85 190.5
Q 295 191.55 294.85 192.95 294.65 194.35 296.25 195.25
L 323.15 210.8
Q 324.75 211.7 327.15 211.6 329.55 211.5 331.4 210.45
L 386.1 178.85
Q 387.95 177.8 388.15 176.4 388.3 175 386.7 174.05
L 359.85 158.55 Z"/>
</g>

<g id="Layer0_0_MEMBER_1_MEMBER_3_FILL">
<path fill="#FDFDFE" stroke="none" d="
M 388.15 176
Q 388 177.45 386.1 178.55
L 331.4 210.15
Q 329.55 211.2 327.15 211.3 324.7 211.4 323.15 210.45
L 296.25 194.95
Q 294.95 194.2 294.85 193.05 294.7 194.3 296.25 195.25
L 323.15 210.8
Q 324.75 211.7 327.15 211.6 329.55 211.5 331.4 210.45
L 386.1 178.85
Q 388.25 177.65 388.15 176 Z"/>
</g>

<g id="Layer0_0_MEMBER_1_MEMBER_4_FILL">
<path fill="#3A3F47" stroke="none" d="
M 359.15 159.2
Q 357.85 158.45 355.8 158.55 353.75 158.6 352.25 159.5
L 297.9 190.85
Q 296.35 191.75 296.25 192.95 296.1 194.1 297.4 194.85
L 323.8 210.1
Q 325.15 210.9 327.2 210.8 329.2 210.7 330.75 209.8
L 385.05 178.45
Q 386.05 177.95 386.4 177.25 386.9 176.5 386.7 175.75 386.45 174.95 385.55 174.45
L 359.15 159.2 Z"/>
</g>

<g id="Layer0_0_MEMBER_1_MEMBER_5_FILL">
<path fill="#7D7CED" stroke="none" d="
M 358.95 159.55
Q 357.9 158.95 356.15 158.95 353.95 158.95 352.45 159.85
L 298.1 191.2
Q 296.65 192.05 296.65 193.15 296.65 194 297.6 194.5
L 324 209.75
Q 325.15 210.4 326.8 210.4 328.9 210.4 330.5 209.45
L 384.85 178.1
Q 385.5 177.75 385.9 177.25
L 386.05 177
Q 386.45 176.45 386.3 175.9 386.15 175.25 385.35 174.8
L 358.95 159.55 Z"/>
</g>

<g id="Layer0_0_MEMBER_1_MEMBER_6_FILL">
<path fill="#8684F7" stroke="none" d="
M 386.05 177
Q 386.45 176.45 386.3 175.9 386.15 175.25 385.35 174.8
L 368.45 165.05 343.45 165.05 322.3 177.25 385.9 177.25 386.05 177 Z"/>
</g>

<g id="Layer0_0_MEMBER_1_MEMBER_7_FILL">
<path fill="#8684F7" stroke="none" d="
M 353.95 195.95
L 370.9 186.15 306.9 186.15 298.1 191.2
Q 296.65 192.05 296.65 193.15 296.65 194 297.6 194.5
L 300.1 195.95 353.95 195.95 Z"/>
</g>

<g id="Layer0_0_MEMBER_1_MEMBER_8_FILL">
<path fill="#2A2A2C" stroke="none" d="
M 372.9 170.35
Q 373.1 170.45 373.35 170.35 373.55 170.2 373.4 170.05
L 366.75 166.25
Q 366.65 166.15 366.3 166.25 366.1 166.4 366.25 166.55
L 372.9 170.35 Z"/>
</g>

<g id="Layer0_0_MEMBER_1_MEMBER_9_FILL">
<path fill="#414B90" stroke="none" d="
M 366.3 166.25
Q 366.1 166.35 366.2 166.5
L 366.3 166.4
Q 366.65 166.3 366.75 166.4
L 373.4 170.2 373.45 170.25
Q 373.55 170.15 373.4 170.05
L 366.75 166.25
Q 366.65 166.15 366.3 166.25 Z"/>
</g>

<g id="Layer0_0_MEMBER_1_MEMBER_10_FILL">
<path fill="#3A3F47" stroke="none" d="
M 363.8 164.8
Q 364.1 164.65 364.1 164.4 364.1 164.15 363.8 164 363.1 163.55 362.35 163.95 362.05 164.15 362.05 164.4 362.05 164.65 362.35 164.8 363.1 165.25 363.8 164.8 Z"/>
</g>

<g id="Layer0_0_MEMBER_1_MEMBER_11_FILL">
<path fill="#526F82" stroke="none" d="
M 363.55 164.65
Q 363.75 164.55 363.75 164.4 363.7 164.25 363.5 164.15 363.05 163.9 362.6 164.15 362.4 164.25 362.4 164.4 362.4 164.55 362.6 164.65 363.1 164.95 363.55 164.65 Z"/>
</g>

<g id="Layer0_0_MEMBER_1_MEMBER_12_FILL">
<path fill="#2A2A2C" stroke="none" d="
M 365.55 165.85
Q 366.05 165.5 365.55 165.25 365 165 364.55 165.25 364 165.55 364.55 165.8 365 166.15 365.55 165.85 Z"/>
</g>

<g id="Layer0_0_MEMBER_1_MEMBER_13_MEMBER_0_FILL">
<path fill="#EFF0F5" stroke="none" d="
M 381.95 183.65
Q 382.5 183.3 382.5 182.5 382.5 181.8 381.95 182.05
L 378 184.35
Q 377.45 184.65 377.45 185.45 377.45 185.8 377.6 185.9 377.8 186.05 378 185.9
L 381.95 183.65 Z"/>
</g>

<g id="Layer0_0_MEMBER_1_MEMBER_13_MEMBER_1_FILL">
<path fill="#C4C8D7" stroke="none" d="
M 382.25 183.8
Q 382.8 183.45 382.8 182.7 382.8 182.35 382.65 182.25 382.5 182.1 382.25 182.25
L 378.3 184.5
Q 377.7 184.9 377.7 185.65 377.7 185.95 377.9 186.1 378.05 186.2 378.3 186.1
L 382.25 183.8 Z"/>
</g>

<g id="Layer0_0_MEMBER_1_MEMBER_14_MEMBER_0_FILL">
<path fill="#EFF0F5" stroke="none" d="
M 357.55 196.95
Q 357.55 196.6 357.35 196.5 357.2 196.35 356.95 196.5
L 353 198.75
Q 352.45 199.1 352.45 199.85 352.45 200.2 352.6 200.3 352.8 200.45 353 200.3
L 356.95 198.05
Q 357.55 197.65 357.55 196.95 Z"/>
</g>

<g id="Layer0_0_MEMBER_1_MEMBER_14_MEMBER_1_FILL">
<path fill="#C4C8D7" stroke="none" d="
M 357.8 197.1
Q 357.8 196.8 357.65 196.7 357.45 196.55 357.25 196.7
L 353.3 198.95
Q 352.75 199.3 352.75 200.05 352.75 200.4 352.9 200.5 353.1 200.65 353.3 200.5
L 357.25 198.25
Q 357.8 197.9 357.8 197.1 Z"/>
</g>

<g id="Layer0_0_MEMBER_1_MEMBER_15_FILL">
<path fill="#A0A6BF" stroke="none" d="
M 307.3 203.1
Q 307.3 203.7 307.8 204.1
L 311.2 206
Q 311.4 206.15 311.55 206.05 311.7 205.9 311.7 205.65
L 311.65 205.4
Q 311.55 204.9 311.2 204.7
L 307.8 202.75
Q 307.6 202.65 307.45 202.75 307.3 202.85 307.3 203.1 Z"/>
</g>

<g id="Layer0_0_MEMBER_1_MEMBER_16_FILL">
<path fill="#191F28" stroke="none" d="
M 311.65 205.4
Q 311.55 204.9 311.2 204.7
L 308.15 202.95
Q 308.2 203.35 308.6 203.65
L 311.65 205.4 Z"/>
</g>

<g id="Layer0_0_MEMBER_1_MEMBER_17_MEMBER_0_FILL">
<path fill="#989CF1" stroke="none" d="
M 362.1 184.5
Q 362.65 184.85 363.45 184.8 364.25 184.8 364.85 184.4
L 371.8 180.4
Q 372.4 180.05 372.45 179.6 372.55 179.1 372 178.8
L 351.45 166.9
Q 350.9 166.6 350.1 166.65 349.3 166.7 348.65 167.05
L 341.75 171.05
Q 341.1 171.4 341.05 171.85 341 172.35 341.55 172.65
L 362.1 184.5 Z"/>
</g>

<g id="Layer0_0_MEMBER_1_MEMBER_18_MEMBER_0_FILL">
<path fill="#B9B9F6" stroke="none" d="
M 317.05 194.5
Q 317.2 194.45 317.2 194.3 317.2 194.2 317.05 194.1 316.7 193.95 316.35 194.1 316.2 194.2 316.2 194.3 316.2 194.45 316.35 194.5 316.7 194.7 317.05 194.5 Z"/>
</g>

<g id="Layer0_0_MEMBER_1_MEMBER_18_MEMBER_1_FILL">
<path fill="#D2D2F9" stroke="none" d="
M 318.95 195.6
Q 319.1 195.55 319.1 195.4 319.1 195.3 318.95 195.2 318.6 194.95 318.25 195.2 317.95 195.35 318.25 195.6 318.6 195.8 318.95 195.6 Z"/>
</g>

<g id="Layer0_0_MEMBER_1_MEMBER_18_MEMBER_2_FILL">
<path fill="#B9B9F6" stroke="none" d="
M 320.85 196.7
Q 321.15 196.45 320.85 196.3 320.5 196.05 320.15 196.3 319.85 196.45 320.15 196.7 320.5 196.9 320.85 196.7 Z"/>
</g>

<g id="Layer0_0_MEMBER_1_MEMBER_18_MEMBER_3_FILL">
<path fill="#B9B9F6" stroke="none" d="
M 322.75 197.8
Q 323.05 197.55 322.75 197.4 322.4 197.15 322.05 197.4 321.75 197.55 322.05 197.8 322.4 198 322.75 197.8 Z"/>
</g>

<g id="Layer0_0_MEMBER_1_MEMBER_19_MEMBER_0_FILL">
<path fill="#5B5ABA" stroke="none" d="
M 324.75 184.8
L 327.55 183.2
Q 328.15 182.85 328.2 182.4 328.3 181.9 327.75 181.6
L 324.55 179.8
Q 324.05 179.45 323.2 179.5 322.4 179.55 321.8 179.9
L 319 181.5
Q 318.4 181.85 318.35 182.3 318.3 182.75 318.85 183.1
L 322 184.9
Q 322.55 185.2 323.35 185.15 324.15 185.15 324.75 184.8 Z"/>
</g>

<g id="Layer0_0_MEMBER_1_MEMBER_19_MEMBER_1_FILL">
<path fill="#5B5ABA" stroke="none" d="
M 316.9 197.65
Q 316.95 197.2 316.4 196.9
L 313.2 195.05
Q 312.7 194.75 311.9 194.8 311.1 194.8 310.45 195.15
L 307.7 196.75
Q 307.1 197.1 307.05 197.55 307 198.05 307.5 198.35
L 310.7 200.2
Q 311.25 200.5 312.05 200.45 312.85 200.4 313.45 200.05
L 316.2 198.45
Q 316.85 198.1 316.9 197.65 Z"/>
</g>

<g id="Layer0_0_MEMBER_1_MEMBER_19_MEMBER_2_FILL">
<path fill="#5B5ABA" stroke="none" d="
M 299.95 193.95
L 303.15 195.8
Q 303.7 196.1 304.5 196.05 305.3 196.05 305.9 195.7
L 308.65 194.1
Q 309.3 193.75 309.35 193.3 309.4 192.8 308.85 192.5
L 305.7 190.65
Q 305.15 190.35 304.35 190.4 303.55 190.45 302.9 190.8
L 300.15 192.35
Q 299.55 192.75 299.5 193.2 299.45 193.65 299.95 193.95 Z"/>
</g>

<g id="Layer0_0_MEMBER_1_MEMBER_19_MEMBER_3_FILL">
<path fill="#5B5ABA" stroke="none" d="
M 354.35 187.85
Q 353.55 187.85 352.9 188.2
L 350.15 189.8
Q 349.55 190.15 349.5 190.6 349.45 191.1 349.95 191.4
L 353.15 193.25
Q 353.7 193.55 354.5 193.5 355.3 193.45 355.9 193.1
L 358.65 191.5
Q 359.3 191.15 359.35 190.7 359.4 190.25 358.85 189.95
L 355.65 188.1
Q 355.15 187.8 354.35 187.85 Z"/>
</g>

<g id="Layer0_0_MEMBER_1_MEMBER_19_MEMBER_4_FILL">
<path fill="#5B5ABA" stroke="none" d="
M 325.9 208.95
Q 326.45 209.25 327.25 209.2 328.05 209.2 328.7 208.85
L 331.45 207.25
Q 332.05 206.9 332.1 206.4 332.15 205.95 331.65 205.65
L 328.45 203.8
Q 327.95 203.5 327.1 203.55 326.3 203.55 325.7 203.9
L 322.95 205.5
Q 322.3 205.85 322.25 206.35 322.2 206.8 322.75 207.1
L 325.9 208.95 Z"/>
</g>

<g id="Layer0_0_MEMBER_1_MEMBER_19_MEMBER_5_FILL">
<path fill="#5B5ABA" stroke="none" d="
M 339.15 179.05
Q 338.35 179.05 337.7 179.4
L 334.95 181
Q 334.35 181.4 334.3 181.85 334.25 182.3 334.75 182.6
L 337.95 184.45
Q 338.5 184.75 339.3 184.7 340.1 184.7 340.7 184.35
L 343.45 182.75
Q 344.1 182.4 344.15 181.9 344.2 181.45 343.65 181.15
L 340.5 179.3
Q 340 179 339.15 179.05 Z"/>
</g>

<g id="Layer0_0_MEMBER_1_MEMBER_19_MEMBER_6_FILL">
<path fill="#5B5ABA" stroke="none" d="
M 341.15 195.45
Q 341.1 195.9 341.6 196.2
L 344.8 198.05
Q 345.35 198.35 346.15 198.3 346.95 198.3 347.55 197.95
L 350.35 196.35
Q 350.95 196 351 195.5 351.05 195.05 350.55 194.75
L 347.35 192.9
Q 346.85 192.6 346 192.65 345.2 192.65 344.6 193
L 341.8 194.6
Q 341.2 195 341.15 195.45 Z"/>
</g>

<g id="Layer0_0_MEMBER_1_MEMBER_19_MEMBER_7_FILL">
<path fill="#5B5ABA" stroke="none" d="
M 326.95 192.25
L 327 192.25 327.25 192
Q 327.85 191.4 326.95 190.8
L 323.75 188.95
Q 322.5 188.2 321.2 188.95
L 318 190.8
Q 317.5 191.1 317.5 191.55 317.5 191.95 318.05 192.25
L 321.2 194.1
Q 321.75 194.4 322.5 194.4 323.25 194.4 323.75 194.1
L 326.95 192.25 Z"/>
</g>

<g id="Layer0_0_MEMBER_1_MEMBER_19_MEMBER_8_FILL">
<path fill="#5B5ABA" stroke="none" d="
M 316.15 184.6
Q 315.65 184.3 314.85 184.35 314.05 184.35 313.4 184.7
L 310.65 186.3
Q 310.05 186.7 310 187.15 309.95 187.6 310.45 187.9
L 313.65 189.75
Q 314.2 190.05 315 190 315.8 190 316.4 189.65
L 319.15 188.05
Q 319.8 187.7 319.85 187.2 319.9 186.75 319.35 186.45
L 316.15 184.6 Z"/>
</g>

<g id="Layer0_0_MEMBER_1_MEMBER_19_MEMBER_9_FILL">
<path fill="#5B5ABA" stroke="none" d="
M 341.9 186.25
Q 341.85 186.7 342.35 187
L 345.55 188.85
Q 346.1 189.15 346.9 189.1 347.7 189.1 348.3 188.75
L 351.1 187.15
Q 351.7 186.75 351.75 186.3 351.8 185.85 351.25 185.55
L 348.1 183.7
Q 347.6 183.4 346.75 183.45 345.95 183.45 345.35 183.8
L 342.55 185.4
Q 341.95 185.8 341.9 186.25 Z"/>
</g>

<g id="Layer0_0_MEMBER_1_MEMBER_19_MEMBER_10_FILL">
<path fill="#5B5ABA" stroke="none" d="
M 324.5 202.05
Q 324.55 201.6 324 201.3
L 320.85 199.45
Q 320.3 199.15 319.5 199.2 318.7 199.2 318.05 199.55
L 315.3 201.15
Q 314.7 201.5 314.65 201.95 314.6 202.45 315.1 202.75
L 318.3 204.6
Q 318.85 204.9 319.65 204.85 320.45 204.8 321.05 204.45
L 323.8 202.9
Q 324.45 202.55 324.5 202.05 Z"/>
</g>

<g id="Layer0_0_MEMBER_1_MEMBER_19_MEMBER_11_FILL">
<path fill="#5B5ABA" stroke="none" d="
M 332.1 184.15
Q 331.6 183.8 330.85 183.8 330.1 183.8 329.55 184.15
L 326.4 185.95
Q 325.9 186.25 325.9 186.7 325.9 187.1 326.4 187.45
L 329.6 189.25
Q 330.1 189.6 330.9 189.6 331.6 189.6 332.15 189.3
L 335.3 187.45
Q 335.85 187.15 335.85 186.7 335.85 186.3 335.3 185.95
L 332.1 184.15 Z"/>
</g>

<g id="Layer0_0_MEMBER_1_MEMBER_19_MEMBER_12_FILL">
<path fill="#5B5ABA" stroke="none" d="
M 333.5 191.05
Q 333.45 191.55 334 191.85
L 337.2 193.7
Q 337.75 194 338.5 193.95 339.3 193.9 339.95 193.55
L 342.7 192
Q 343.3 191.65 343.35 191.15 343.4 190.7 342.9 190.4
L 339.7 188.55
Q 339.2 188.25 338.35 188.3 337.55 188.3 336.95 188.65
L 334.2 190.25
Q 333.55 190.6 333.5 191.05 Z"/>
</g>

<g id="Layer0_0_MEMBER_1_MEMBER_19_MEMBER_13_FILL">
<path fill="#5B5ABA" stroke="none" d="
M 334.35 196.75
Q 334.95 196.4 335 195.95 335.05 195.5 334.55 195.2
L 331.35 193.35
Q 330.85 193.05 330 193.1 329.2 193.1 328.6 193.45
L 325.85 195.05
Q 325.2 195.4 325.15 195.85 325.1 196.35 325.65 196.65
L 328.8 198.5
Q 329.35 198.8 330.15 198.75 330.95 198.7 331.6 198.35
L 334.35 196.75 Z"/>
</g>

<g id="Layer0_0_MEMBER_1_MEMBER_19_MEMBER_14_FILL">
<path fill="#5B5ABA" stroke="none" d="
M 335.9 178.35
Q 336.5 178 336.55 177.55 336.65 177.05 336.1 176.75
L 332.9 174.9
Q 332.35 174.6 331.55 174.65 330.75 174.7 330.15 175.05
L 327.35 176.6
Q 326.75 177 326.7 177.45 326.65 177.9 327.2 178.2
L 330.35 180.05
Q 330.9 180.35 331.7 180.3 332.5 180.3 333.1 179.95
L 335.9 178.35 Z"/>
</g>

<g id="Layer0_0_MEMBER_1_MEMBER_19_MEMBER_15_FILL">
<path fill="#5B5ABA" stroke="none" d="
M 338.9 197.7
Q 337.65 197 336.15 197.85
L 333.4 199.45
Q 332.8 199.8 332.75 200.25 332.7 200.7 333.2 201
L 336.4 202.85
Q 336.95 203.15 337.75 203.1 338.55 203.1 339.15 202.75
L 341.9 201.15
Q 342.55 200.8 342.6 200.35 342.65 199.85 342.1 199.55
L 338.9 197.7 Z"/>
</g>

<g id="Layer0_0_MEMBER_1_MEMBER_20_MEMBER_0_FILL">
<path fill="#23DC92" stroke="none" d="
M 324.75 184.3
L 327.55 182.7
Q 328.15 182.35 328.2 181.9 328.3 181.4 327.75 181.1
L 324.55 179.25
Q 324 178.95 323.2 179 322.4 179.05 321.8 179.4
L 319 180.95
Q 318.4 181.35 318.35 181.8 318.3 182.25 318.85 182.55
L 322 184.4
Q 322.55 184.7 323.35 184.65 324.15 184.65 324.75 184.3 Z"/>
</g>

<g id="Layer0_0_MEMBER_1_MEMBER_20_MEMBER_1_MEMBER_0_MEMBER_0_FILL">
<path fill="#C1C5D4" stroke="none" d="
M 323.8 183.25
L 323.75 182.7 322.85 182.7 322.85 183.25 323.8 183.25 Z"/>
</g>

<g id="Layer0_0_MEMBER_1_MEMBER_20_MEMBER_1_MEMBER_0_MEMBER_1_FILL">
<path fill="#FDB24A" stroke="none" d="
M 323.85 184.1
L 323.8 183.25 322.85 183.25 322.8 184.1
Q 322.8 184.4 323.3 184.4 323.85 184.4 323.85 184.1 Z"/>
</g>

<g id="Layer0_0_MEMBER_1_MEMBER_20_MEMBER_1_MEMBER_0_MEMBER_2_FILL">
<path fill="#F1F2F6" stroke="none" d="
M 325.8 181.35
Q 325.8 180.75 325.1 180.35 324.35 179.9 323.3 179.9 322.25 179.9 321.55 180.35 320.8 180.75 320.8 181.35 320.8 181.95 321.55 182.4 322.3 182.8 323.3 182.8 324.35 182.8 325.1 182.4 325.8 181.95 325.8 181.35 Z"/>
</g>

<g id="Layer0_0_MEMBER_1_MEMBER_20_MEMBER_1_MEMBER_0_MEMBER_3_FILL">
<path fill="#84D1ED" stroke="none" d="
M 325.3 181.35
Q 325.3 180.85 324.7 180.55 324.15 180.2 323.3 180.2 322.45 180.2 321.9 180.55 321.3 180.85 321.3 181.35 321.3 181.85 321.9 182.15 322.45 182.5 323.3 182.5 324.15 182.5 324.7 182.15 325.3 181.85 325.3 181.35 Z"/>
</g>

<g id="Layer0_0_MEMBER_1_MEMBER_20_MEMBER_1_MEMBER_1_FILL">
<path fill="#B9E5F5" stroke="none" d="
M 323.8 180.4
Q 323 180.25 322.8 180.55 322.7 180.65 322.9 180.8 323.15 180.95 323.45 181 324.25 181.2 324.4 180.85 324.6 180.6 323.8 180.4 Z"/>
</g>

<g id="Layer0_0_MEMBER_1_MEMBER_21_MEMBER_0_FILL">
<path fill="#84D1ED" stroke="none" d="
M 316.2 197.95
Q 316.85 197.6 316.9 197.15 316.95 196.7 316.4 196.35
L 313.2 194.55
Q 312.7 194.2 311.9 194.25 311.1 194.3 310.45 194.65
L 307.7 196.25
Q 307.1 196.6 307.05 197.05 307 197.5 307.5 197.85
L 310.7 199.65
Q 311.25 199.95 312.05 199.9 312.85 199.9 313.45 199.55
L 316.2 197.95 Z"/>
</g>

<g id="Layer0_0_MEMBER_1_MEMBER_21_MEMBER_1_FILL">
<path fill="#F43C41" stroke="none" d="
M 312 197.45
L 315.85 196.65 311.8 196.85 312 197.45 Z"/>
</g>

<g id="Layer0_0_MEMBER_1_MEMBER_21_MEMBER_2_FILL">
<path fill="#F1F2F6" stroke="none" d="
M 311.8 196.85
L 307.95 197.65 312 197.45 311.8 196.85 Z"/>
</g>

<g id="Layer0_0_MEMBER_1_MEMBER_21_MEMBER_3_FILL">
<path fill="#F1F2F6" stroke="none" d="
M 312.6 197.35
Q 312.9 196.95 312.35 196.7 311.7 196.5 311.3 196.85 311.15 197 311.2 197.2 311.3 197.4 311.55 197.45 312.15 197.7 312.6 197.35 Z"/>
</g>

<g id="Layer0_0_MEMBER_1_MEMBER_21_MEMBER_4_FILL">
<path fill="#F43C41" stroke="none" d="
M 312.25 197.2
Q 312.55 197 312.15 196.9 311.8 196.8 311.6 196.95 311.4 197.15 311.75 197.3 312.05 197.4 312.25 197.2 Z"/>
</g>

<g id="Layer0_0_MEMBER_1_MEMBER_22_MEMBER_0_FILL">
<path fill="#7FCF57" stroke="none" d="
M 299.95 193.45
L 303.15 195.3
Q 303.7 195.6 304.5 195.55 305.3 195.55 305.9 195.2
L 308.65 193.6
Q 309.3 193.25 309.35 192.75 309.4 192.3 308.85 192
L 305.7 190.15
Q 305.2 189.85 304.35 189.9 303.55 189.9 302.9 190.25
L 300.15 191.85
Q 299.55 192.25 299.5 192.7 299.45 193.15 299.95 193.45 Z"/>
</g>

<g id="Layer0_0_MEMBER_1_MEMBER_22_MEMBER_1_FILL">
<path fill="#F1F2F6" stroke="none" d="
M 300.85 193.15
L 301.1 193.45
Q 301.8 194.35 304.95 193.6 308.05 192.75 307.3 191.8
L 307.1 191.55 306.95 191.6 305.55 191.95 305.75 192.2
Q 306.55 192.5 304.5 193 302.6 193.55 302.6 193.05 302.65 192.95 302.4 192.75
L 301.05 193.15 300.85 193.15 Z"/>
</g>

<g id="Layer0_0_MEMBER_1_MEMBER_23_MEMBER_0_FILL">
<path fill="#F1F2F6" stroke="none" d="
M 354.35 187.3
Q 353.55 187.35 352.9 187.7
L 350.15 189.3
Q 349.55 189.65 349.5 190.1 349.45 190.55 349.95 190.9
L 353.15 192.7
Q 353.7 193.05 354.5 193 355.3 193 355.9 192.6
L 358.65 191
Q 359.3 190.65 359.35 190.2 359.4 189.75 358.85 189.4
L 355.65 187.6
Q 355.15 187.25 354.35 187.3 Z"/>
</g>

<g id="Layer0_0_MEMBER_1_MEMBER_23_MEMBER_1_FILL">
<path fill="#F43C41" stroke="none" d="
M 356.75 191.5
Q 357.75 190.95 357.75 190.15 357.75 189.35 356.75 188.8 355.8 188.25 354.4 188.25 353.05 188.25 352.05 188.8 351.1 189.35 351.1 190.15 351.1 190.95 352.05 191.5 353.05 192.05 354.4 192.05 355.8 192.05 356.75 191.5 Z"/>
</g>

<g id="Layer0_0_MEMBER_1_MEMBER_23_MEMBER_2_MEMBER_0_FILL">
<path fill="#F1F2F6" stroke="none" d="
M 353.75 191.6
L 357.25 189.95 352.25 189.35 353.05 190.25 353.4 190.5 353.3 190.55 353.75 191.6 Z"/>
</g>

<g id="Layer0_0_MEMBER_1_MEMBER_23_MEMBER_2_MEMBER_1_FILL">
<path fill="#C4C8D7" stroke="none" d="
M 353.3 190.55
L 355.65 190.15 353.05 190.25 352.4 190.85 353.35 190.65 353.3 190.55 Z"/>
</g>

<g id="Layer0_0_MEMBER_1_MEMBER_24_MEMBER_0_FILL">
<path fill="#F43C41" stroke="none" d="
M 325.9 208.45
Q 326.45 208.75 327.25 208.7 328.05 208.7 328.7 208.35
L 331.45 206.75
Q 332.05 206.4 332.1 205.9 332.15 205.45 331.65 205.15
L 328.45 203.3
Q 327.95 203 327.1 203.05 326.3 203.05 325.7 203.4
L 322.95 205
Q 322.3 205.35 322.25 205.85 322.2 206.3 322.75 206.6
L 325.9 208.45 Z"/>
</g>

<g id="Layer0_0_MEMBER_1_MEMBER_24_MEMBER_1_MEMBER_0_FILL">
<path fill="#F1F2F6" stroke="none" d="
M 327.6 207.3
L 330.5 205.6 327.9 204.55 325.15 206.15 325.4 206.3 327.45 205.15 329.55 205.95 327.4 207.15 327.6 207.3 Z"/>
</g>

<g id="Layer0_0_MEMBER_1_MEMBER_24_MEMBER_1_MEMBER_1_FILL">
<path fill="#F1F2F6" stroke="none" d="
M 325.55 206.15
Q 325.8 205.8 324.95 205.6 324.1 205.45 323.85 205.85 323.65 206.25 324.5 206.4 325.4 206.5 325.55 206.15 Z"/>
</g>

<g id="Layer0_0_MEMBER_1_MEMBER_24_MEMBER_1_MEMBER_2_FILL">
<path fill="#F1F2F6" stroke="none" d="
M 327.75 207.15
Q 327.95 206.75 327.1 206.6 326.25 206.4 326.05 206.85 325.85 207.25 326.7 207.4 327.55 207.6 327.75 207.15 Z"/>
</g>

<g id="Layer0_0_MEMBER_1_MEMBER_25_MEMBER_0_FILL">
<path fill="#F43C41" stroke="none" d="
M 339.15 178.55
Q 338.35 178.55 337.7 178.9
L 334.95 180.5
Q 334.35 180.85 334.3 181.3 334.25 181.8 334.75 182.1
L 337.95 183.95
Q 338.5 184.25 339.3 184.2 340.1 184.15 340.7 183.8
L 343.45 182.2
Q 344.1 181.85 344.15 181.4 344.2 180.95 343.65 180.65
L 340.5 178.8
Q 340 178.5 339.15 178.55 Z"/>
</g>

<g id="Layer0_0_MEMBER_1_MEMBER_25_MEMBER_1_FILL">
<path fill="#F1F2F6" stroke="none" d="
M 341.6 182.7
Q 342.55 182.2 342.55 181.35 342.55 180.55 341.55 180 340.6 179.45 339.2 179.45 337.85 179.45 336.85 180 335.9 180.55 335.9 181.35 335.9 182.15 336.85 182.7 337.85 183.25 339.25 183.25 340.65 183.25 341.6 182.7 Z"/>
</g>

<g id="Layer0_0_MEMBER_1_MEMBER_25_MEMBER_2_FILL">
<path fill="#D9CCDB" stroke="none" d="
M 339.85 181.6
Q 340 181.45 339.95 181.25 339.85 181.1 339.6 181 339 180.75 338.55 181.1 338.4 181.25 338.45 181.45 338.55 181.65 338.8 181.7 339.4 181.95 339.85 181.6 Z"/>
</g>

<g id="Layer0_0_MEMBER_1_MEMBER_25_MEMBER_3_FILL">
<path fill="#F43C41" stroke="none" d="
M 339.3 181.35
L 340.3 179.7 340.2 179.65 339.15 181.35 339.3 181.35 Z"/>
</g>

<g id="Layer0_0_MEMBER_1_MEMBER_25_MEMBER_4_FILL">
<path fill="#383838" stroke="none" d="
M 339.2 181.25
L 336.05 181.25 336.05 181.45 339.2 181.45 339.2 181.25 Z"/>
</g>

<g id="Layer0_0_MEMBER_1_MEMBER_25_MEMBER_5_FILL">
<path fill="#383838" stroke="none" d="
M 339.15 181.4
L 341.8 181.95 341.85 181.85 339.25 181.3 339.15 181.4 Z"/>
</g>

<g id="Layer0_0_MEMBER_1_MEMBER_25_MEMBER_6_FILL">
<path fill="#666666" stroke="none" d="
M 339.55 181.45
Q 339.7 181.3 339.4 181.15 339.1 181.05 338.9 181.25 338.7 181.4 339 181.55 339.35 181.65 339.55 181.45 Z"/>
</g>

<g id="Layer0_0_MEMBER_1_MEMBER_26_MEMBER_0_FILL">
<path fill="#F1F2F6" stroke="none" d="
M 341.15 194.9
Q 341.1 195.4 341.6 195.7
L 344.8 197.55
Q 345.35 197.85 346.15 197.8 346.95 197.75 347.55 197.4
L 350.35 195.85
Q 350.95 195.5 351 195 351.05 194.55 350.55 194.25
L 347.35 192.4
Q 346.85 192.1 346 192.15 345.2 192.15 344.6 192.5
L 341.8 194.1
Q 341.2 194.45 341.15 194.9 Z"/>
</g>

<g id="Layer0_0_MEMBER_1_MEMBER_26_MEMBER_1_FILL">
<path fill="#FD8F8E" stroke="none" d="
M 346.5 192.75
Q 346.05 192.5 345.6 192.75
L 344.45 193.4
Q 344.15 193.6 344.3 193.8 344.5 194 344.9 194.05
L 347.2 194.05
Q 347.6 194.05 347.8 193.8 347.95 193.6 347.65 193.4
L 346.5 192.75 Z"/>
</g>

<g id="Layer0_0_MEMBER_1_MEMBER_26_MEMBER_2_FILL">
<path fill="#FD8F8E" stroke="none" d="
M 345.65 197.15
Q 346.1 197.4 346.5 197.15
L 347.65 196.5
Q 347.95 196.35 347.8 196.15 347.6 195.9 347.2 195.9
L 344.95 195.9
Q 344.5 195.9 344.35 196.1 344.2 196.3 344.5 196.5
L 345.65 197.15 Z"/>
</g>

<g id="Layer0_0_MEMBER_1_MEMBER_26_MEMBER_3_FILL">
<path fill="#FD8F8E" stroke="none" d="
M 346.5 192.75
Q 346.05 192.5 345.6 192.75
L 344.45 193.4
Q 344.15 193.6 344.3 193.8 344.5 194 344.9 194.05
L 347.2 194.05
Q 347.6 194.05 347.8 193.8 347.95 193.6 347.65 193.4
L 346.5 192.75 Z"/>
</g>

<g id="Layer0_0_MEMBER_1_MEMBER_26_MEMBER_4_FILL">
<path fill="#FD8F8E" stroke="none" d="
M 345.65 197.15
Q 346.1 197.4 346.5 197.15
L 347.65 196.5
Q 347.95 196.35 347.8 196.15 347.6 195.9 347.2 195.9
L 344.95 195.9
Q 344.5 195.9 344.35 196.1 344.2 196.3 344.5 196.5
L 345.65 197.15 Z"/>
</g>

<g id="Layer0_0_MEMBER_1_MEMBER_26_MEMBER_5_FILL">
<path fill="#FDCA58" stroke="none" d="
M 342.25 194.7
Q 341.85 194.95 342.25 195.2
L 343.4 195.85
Q 343.7 196.05 344.1 195.95 344.45 195.85 344.45 195.6
L 344.45 194.3
Q 344.45 194.05 344.05 193.95 343.65 193.85 343.4 194.05
L 342.25 194.7 Z"/>
</g>

<g id="Layer0_0_MEMBER_1_MEMBER_26_MEMBER_6_FILL">
<path fill="#FDCA58" stroke="none" d="
M 348.75 194.05
Q 348.45 193.85 348.05 193.95 347.65 194.05 347.65 194.3
L 347.65 195.6
Q 347.65 195.85 348.05 195.95 348.45 196.05 348.75 195.9
L 349.9 195.2
Q 350.1 195.15 350.1 194.95 350.1 194.8 349.9 194.7
L 348.75 194.05 Z"/>
</g>

<g id="Layer0_0_MEMBER_1_MEMBER_27_MEMBER_0_FILL">
<path fill="#84D1ED" stroke="none" d="
M 326.95 191.75
L 327 191.75 327.25 191.5
Q 327.85 190.8 326.95 190.3
L 323.75 188.45
Q 322.5 187.7 321.2 188.45
L 318 190.25
Q 317.5 190.6 317.5 191 317.5 191.45 318.05 191.75
L 321.2 193.6
Q 321.75 193.9 322.5 193.9 323.25 193.9 323.75 193.6
L 326.95 191.75 Z"/>
</g>

<g id="Layer0_0_MEMBER_1_MEMBER_27_MEMBER_1_FILL">
<path fill="#F1F2F6" stroke="none" d="
M 322.2 192.3
L 318.45 190 318 190.25
Q 317.5 190.6 317.5 191 317.5 191.45 318.05 191.75
L 319.7 192.7 322.2 192.3 Z"/>
</g>

<g id="Layer0_0_MEMBER_1_MEMBER_27_MEMBER_2_FILL">
<path fill="#7FCF57" stroke="none" d="
M 324.85 190.6
Q 327.2 191.6 327.25 191.5 327.85 190.8 326.95 190.3
L 323.75 188.45
Q 322.5 187.7 321.2 188.45
L 318.5 190 322.05 192.05 324.85 190.6 Z"/>
</g>

<g id="Layer0_0_MEMBER_1_MEMBER_27_MEMBER_3_FILL">
<path fill="#7FCF57" stroke="none" d="
M 326.95 191.75
L 327 191.75 327.25 191.5
Q 327.85 190.8 326.95 190.3
L 326.2 189.85 323.2 191.55 325.25 192.75 326.95 191.75 Z"/>
</g>

<g id="Layer0_0_MEMBER_1_MEMBER_27_MEMBER_4_FILL">
<path fill="#FDB24A" stroke="none" d="
M 318.7 189.85
L 318 190.3 321.7 192.4 322.4 192 318.7 189.85 Z"/>
</g>

<g id="Layer0_0_MEMBER_1_MEMBER_27_MEMBER_5_MEMBER_0_FILL">
<path fill="#FC4E4F" stroke="none" d="
M 321.65 190.55
Q 323.2 190.3 323.75 190 324.25 189.7 324.25 189.35 324.25 188.95 323.75 188.65 322.6 188.05 321.45 188.65 320.9 188.95 320.5 189.85 320.3 190.3 320.2 190.7
L 321.65 190.55 Z"/>
</g>

<g id="Layer0_0_MEMBER_1_MEMBER_27_MEMBER_5_MEMBER_1_FILL">
<path fill="#FFFFFF" stroke="none" d="
M 323.25 189.7
Q 323.55 189.55 323.55 189.35 323.55 189.1 323.25 188.95 322.6 188.5 321.95 188.95 321.65 189.1 321.65 189.35 321.65 189.55 321.95 189.7 322.6 190.05 323.25 189.7 Z"/>
</g>

<g id="Layer0_0_MEMBER_1_MEMBER_27_MEMBER_6_FILL">
<path fill="#FEE24F" stroke="none" d="
M 326.3 189.9
L 325.45 189.4 319.7 192.7 320.6 193.2 326.3 189.9 Z"/>
</g>

<g id="Layer0_0_MEMBER_1_MEMBER_28_MEMBER_0_FILL">
<path fill="#CC783E" stroke="none" d="
M 316.15 184.1
Q 315.65 183.8 314.85 183.85 314.05 183.85 313.4 184.2
L 310.65 185.8
Q 310.05 186.15 310 186.6 309.95 187.1 310.45 187.4
L 313.65 189.25
Q 314.2 189.55 315 189.5 315.8 189.45 316.4 189.1
L 319.15 187.55
Q 319.8 187.2 319.85 186.7 319.9 186.25 319.35 185.95
L 316.15 184.1 Z"/>
</g>

<g id="Layer0_0_MEMBER_1_MEMBER_28_MEMBER_1_MEMBER_0_FILL">
<path fill="#F1F2F6" stroke="none" d="
M 315.1 188.25
Q 315.5 188.45 315.9 188.2
L 317.55 187.25
Q 317.95 186.95 317.6 186.8
L 314.35 184.95
Q 314.05 184.75 313.6 184.95
L 311.95 185.9
Q 311.5 186.15 311.85 186.35
L 315.1 188.25 Z"/>
</g>

<g id="Layer0_0_MEMBER_1_MEMBER_28_MEMBER_1_MEMBER_1_FILL">
<path fill="#CC783E" stroke="none" d="
M 315.25 187.95
Q 315.45 188.05 315.7 187.95
L 317.05 187.15
Q 317.3 187 317.1 186.9
L 314.2 185.2
Q 313.95 185.1 313.8 185.25
L 312.4 186.05
Q 312.2 186.15 312.35 186.3
L 315.25 187.95 Z"/>
</g>

<g id="Layer0_0_MEMBER_1_MEMBER_28_MEMBER_1_MEMBER_2_FILL">
<path fill="#F1F2F6" stroke="none" d="
M 316.65 188.25
Q 316.75 188.35 316.75 188.25
L 317.6 187.8 317.65 187.7 317.35 187.55 317.25 187.55 316.4 188.05 316.35 188.1 316.65 188.25 Z"/>
</g>

<g id="Layer0_0_MEMBER_1_MEMBER_28_MEMBER_1_MEMBER_3_FILL">
<path fill="#F1F2F6" stroke="none" d="
M 313.1 186.55
Q 313.1 186.65 313.2 186.55
L 314.7 185.7 314.7 185.65 314.15 185.3 314 185.3 312.55 186.15 312.5 186.25 313.1 186.55 Z"/>
</g>

<g id="Layer0_0_MEMBER_1_MEMBER_28_MEMBER_1_MEMBER_4_FILL">
<path fill="#F1F2F6" stroke="none" d="
M 313.85 187
Q 313.95 187.1 314 187
L 315.5 186.15 315.5 186.1 314.95 185.75 314.8 185.75 313.3 186.65 313.3 186.7 313.85 187 Z"/>
</g>

<g id="Layer0_0_MEMBER_1_MEMBER_28_MEMBER_1_MEMBER_5_FILL">
<path fill="#F1F2F6" stroke="none" d="
M 314.65 187.5
L 314.8 187.45 316.25 186.6 316.3 186.55 315.7 186.2 315.6 186.2 314.1 187.1 314.1 187.15 314.65 187.5 Z"/>
</g>

<g id="Layer0_0_MEMBER_1_MEMBER_29_MEMBER_0_MEMBER_0_FILL">
<path fill="#F1F2F6" stroke="none" d="
M 358.75 161.8
Q 358.95 161.9 359.15 161.8
L 360 161.3
Q 360.25 161.15 360.05 161.05
L 358.35 160.05
Q 358.1 159.95 357.95 160.1
L 357.1 160.6
Q 356.85 160.7 357.05 160.8
L 358.75 161.8 Z"/>
</g>

<g id="Layer0_0_MEMBER_1_MEMBER_29_MEMBER_0_MEMBER_1_FILL">
<path fill="#F1F2F6" stroke="none" d="
M 359.55 161.8
Q 359.6 161.85 359.6 161.8
L 360.05 161.55
Q 360.1 161.55 360.05 161.5
L 359.9 161.45 359.85 161.45 359.4 161.7 359.4 161.75 359.55 161.8 Z"/>
</g>

<g id="Layer0_0_MEMBER_1_MEMBER_30_MEMBER_0_FILL">
<path fill="#D5D8E6" stroke="none" d="
M 341.9 185.75
Q 341.85 186.2 342.35 186.5
L 345.55 188.35
Q 346.1 188.65 346.9 188.6 347.7 188.6 348.3 188.25
L 351.1 186.65
Q 351.7 186.25 351.75 185.8 351.8 185.35 351.25 185.05
L 348.1 183.2
Q 347.6 182.9 346.75 182.95 345.95 182.95 345.35 183.3
L 342.55 184.9
Q 341.95 185.3 341.9 185.75 Z"/>
</g>

<g id="Layer0_0_MEMBER_1_MEMBER_30_MEMBER_1_MEMBER_0_MEMBER_0_MEMBER_0_FILL">
<path fill="#70B7F1" stroke="none" d="
M 349.5 187.3
Q 350.65 186.65 350.65 185.8 350.65 184.9 349.5 184.25 348.4 183.6 346.8 183.55 345.25 183.55 344.15 184.2 343.05 184.85 343.05 185.75 343.05 186.65 344.15 187.3 345.3 187.95 346.85 187.95 348.45 187.95 349.5 187.3 Z"/>
</g>

<g id="Layer0_0_MEMBER_1_MEMBER_30_MEMBER_1_MEMBER_0_MEMBER_0_MEMBER_1_FILL">
<path fill="#84D1ED" stroke="none" d="
M 349.35 187.2
Q 350.35 186.6 350.35 185.8 350.35 184.95 349.3 184.35 348.3 183.75 346.8 183.75 345.35 183.75 344.3 184.3 343.3 184.9 343.3 185.75 343.3 186.6 344.35 187.2 345.35 187.8 346.85 187.8 348.3 187.8 349.35 187.2 Z"/>
</g>

<g id="Layer0_0_MEMBER_1_MEMBER_30_MEMBER_1_MEMBER_0_MEMBER_0_MEMBER_2_FILL">
<path fill="#B5E7FB" stroke="none" d="
M 349.1 187.1
Q 350.05 186.55 350.05 185.8 350.05 185 349.1 184.45 348.15 183.95 346.85 183.95 345.5 183.95 344.55 184.45 343.6 185 343.6 185.75 343.6 186.55 344.55 187.1 345.5 187.65 346.85 187.65 348.15 187.65 349.1 187.1 Z"/>
</g>

<g id="Layer0_0_MEMBER_1_MEMBER_30_MEMBER_2_FILL">
<path fill="#7FCF57" stroke="none" d="
M 347 185.25
Q 346.45 185.1 345.85 185.55 345.45 185.85 345.8 186.05 345.95 186.15 346.2 186.25 346.3 186.35 346 186.5 345.65 186.9 345.15 187 344.7 187.05 344.75 187.2 345.5 187.55 346.2 187.6
L 346.3 187.6
Q 346.85 187.45 347.15 187.5 348.05 187.5 348.05 187.4
L 347.7 187.2
Q 347.75 187.15 347.9 186.9 348.1 186.65 348.25 186.25 348.45 186.1 348.6 186.2 348.65 186 348.45 185.95
L 348.25 185.85
Q 348.2 185.8 348.3 185.65 348.4 185.5 348.65 185.6 348.9 185.65 348.9 185.85 348.9 186.15 349.15 186.25 349.15 186.35 348.9 186.35
L 348.5 186.35 348.2 186.85
Q 347.95 187.1 347.95 187.15 347.9 187.25 348.15 187.3
L 348.5 187.35 349.05 187.15
Q 348.85 187.05 348.9 187 349.05 186.85 349.3 186.95 350.35 186.25 349.95 185.35 349.85 185.4 349.7 185.3
L 349.55 185.15
Q 349.85 185 349.7 185
L 349.35 185.1 348.7 184.95
Q 348.55 185.2 348.45 185.1 348.4 184.9 348.15 185 347.75 185.1 347.75 185.15
L 347.7 185.25
Q 347.45 185.4 347 185.25 Z"/>
</g>

<g id="Layer0_0_MEMBER_1_MEMBER_30_MEMBER_3_MEMBER_0_FILL">
<path fill="#70B84D" stroke="none" d="
M 345.15 184.2
L 345.1 184.2 345.3 184.3 344.85 184.65 345.3 184.55 345.4 184.4
Q 345.45 184.35 345.7 184.3
L 346.3 184.3 346.65 184.25 346.75 184.4 346.45 184.45 347 184.5
Q 347.35 184.55 347.3 184.45
L 346.85 184.25
Q 346.75 184.15 346.8 184.15 346.85 184.15 346.9 184.15
L 347.3 184.35 347.75 184.35
Q 347.95 184.3 347.8 184.1
L 348 184.05
Q 346.4 183.7 345.15 184.2 Z"/>
</g>

<g id="Layer0_0_MEMBER_1_MEMBER_30_MEMBER_3_MEMBER_1_FILL">
<path fill="#70B84D" stroke="none" d="
M 343.85 186.45
Q 344.05 186.35 344 186.2
L 344.35 186.1 344.6 185.8 344.55 185.65 344.8 185.5 344.95 185.35
Q 345.35 185.3 345.3 185.15
L 345.2 184.85
Q 345.1 184.75 344.85 184.75
L 344.3 184.75 344.1 184.8 343.9 185
Q 343.3 185.75 343.85 186.45 Z"/>
</g>

<g id="Layer0_0_MEMBER_1_MEMBER_31_MEMBER_0_FILL">
<path fill="#7FCF57" stroke="none" d="
M 324.5 201.55
Q 324.55 201.1 324 200.8
L 320.85 198.95
Q 320.3 198.65 319.5 198.7 318.7 198.7 318.05 199.05
L 315.3 200.65
Q 314.7 201 314.65 201.45 314.6 201.95 315.1 202.25
L 318.3 204.1
Q 318.85 204.4 319.65 204.35 320.45 204.3 321.05 203.95
L 323.8 202.35
Q 324.45 202 324.5 201.55 Z"/>
</g>

<g id="Layer0_0_MEMBER_1_MEMBER_31_MEMBER_1_FILL">
<path fill="#F1F2F6" stroke="none" d="
M 323 202.1
Q 323.6 201.65 323 201.3
L 319.95 199.55
Q 319.25 199.1 318.55 199.55
L 316.45 200.75
Q 316.2 200.9 316.2 201.15 316.2 201.35 316.5 201.55
L 316.55 201.6 317.9 201.5 315.55 202.05 317.6 202.2 319.5 203.3
Q 320.25 203.65 320.9 203.3
L 323 202.1 Z"/>
</g>

<g id="Layer0_0_MEMBER_1_MEMBER_32_MEMBER_0_FILL">
<path fill="#CC783E" stroke="none" d="
M 332.1 183.6
Q 330.85 182.85 329.55 183.6
L 326.4 185.45
Q 325.9 185.75 325.9 186.2 325.9 186.6 326.4 186.9
L 329.6 188.75
Q 330.15 189.05 330.9 189.05 331.65 189.05 332.15 188.75
L 335.3 186.95
Q 335.85 186.65 335.85 186.2 335.85 185.75 335.3 185.45
L 332.1 183.6 Z"/>
</g>

<g id="Layer0_0_MEMBER_1_MEMBER_32_MEMBER_1_FILL">
<path fill="#FEE477" stroke="none" d="
M 332.3 183.75
L 326.6 187.05 329.6 188.75
Q 330.15 189.05 330.9 189.05 331.65 189.05 332.15 188.75
L 335.3 186.95
Q 335.85 186.65 335.85 186.2 335.85 185.75 335.3 185.45
L 332.3 183.75 Z"/>
</g>

<g id="Layer0_0_MEMBER_1_MEMBER_32_MEMBER_2_FILL">
<path fill="#FC4E4F" stroke="none" d="
M 334.8 185.15
L 333.55 184.45 331.65 185.6 332.65 185.7 332.85 186.25 334.8 185.15 Z"/>
</g>

<g id="Layer0_0_MEMBER_1_MEMBER_33_MEMBER_0_FILL">
<path fill="#D2D6E1" stroke="none" d="
M 333.5 190.55
Q 333.45 191.05 334 191.35
L 337.2 193.2
Q 337.75 193.5 338.5 193.45 339.3 193.4 339.95 193.05
L 342.7 191.45
Q 343.3 191.1 343.35 190.65 343.4 190.2 342.9 189.9
L 339.7 188.05
Q 339.2 187.75 338.35 187.8 337.55 187.8 336.95 188.15
L 334.2 189.75
Q 333.55 190.1 333.5 190.55 Z"/>
</g>

<g id="Layer0_0_MEMBER_1_MEMBER_33_MEMBER_1_FILL">
<path fill="#596990" stroke="none" d="
M 340.8 191.95
Q 341.8 191.4 341.8 190.6 341.8 189.8 340.8 189.25 339.85 188.7 338.45 188.7 337.05 188.7 336.1 189.25 335.15 189.8 335.15 190.6 335.15 191.4 336.1 191.95 337.1 192.5 338.45 192.5 339.85 192.5 340.8 191.95 Z"/>
</g>

<g id="Layer0_0_MEMBER_1_MEMBER_33_MEMBER_2_FILL">
<path fill="#7572EB" stroke="none" d="
M 340.5 191.8
Q 341.35 191.3 341.35 190.6 341.35 189.95 340.5 189.4 339.65 188.9 338.45 188.9 337.25 188.9 336.4 189.4 335.55 189.9 335.55 190.6 335.55 191.3 336.4 191.8 337.25 192.3 338.45 192.3 339.65 192.3 340.5 191.8 Z"/>
</g>

<g id="Layer0_0_MEMBER_1_MEMBER_33_MEMBER_3_FILL">
<path fill="#465690" stroke="none" d="
M 340.05 191.55
Q 340.75 191.2 340.75 190.6 340.75 190.05 340.05 189.65 339.4 189.3 338.45 189.3 337.5 189.3 336.8 189.65 336.15 190.05 336.15 190.6 336.15 191.15 336.8 191.55 337.5 191.95 338.45 191.95 339.4 191.95 340.05 191.55 Z"/>
</g>

<g id="Layer0_0_MEMBER_1_MEMBER_33_MEMBER_4_FILL">
<path fill="#323D6C" stroke="none" d="
M 339.6 191.3
Q 340.1 191 340.1 190.6 340.1 190.2 339.6 189.95 339.1 189.65 338.45 189.65 337.75 189.65 337.3 189.95 336.8 190.2 336.8 190.6 336.8 191 337.3 191.25 337.8 191.55 338.45 191.55 339.1 191.55 339.6 191.3 Z"/>
</g>

<g id="Layer0_0_MEMBER_1_MEMBER_33_MEMBER_5_FILL">
<path fill="#8B97B2" stroke="none" d="
M 339.4 190.2
Q 339.5 190.1 339.3 190 339.15 189.9 338.9 189.85 338.25 189.7 338.05 189.95 337.95 190.05 338.15 190.15 338.3 190.25 338.6 190.3 339.3 190.5 339.4 190.2 Z"/>
</g>

<g id="Layer0_0_MEMBER_1_MEMBER_34_MEMBER_0_FILL">
<path fill="#CC783E" stroke="none" d="
M 331.35 192.85
Q 330.85 192.5 330 192.55 329.2 192.6 328.6 192.95
L 325.85 194.55
Q 325.2 194.9 325.15 195.35 325.1 195.8 325.65 196.15
L 328.8 197.95
Q 329.35 198.3 330.15 198.25 330.95 198.25 331.6 197.85
L 334.35 196.25
Q 334.95 195.9 335 195.45 335.05 195 334.55 194.65
L 331.35 192.85 Z"/>
</g>

<g id="Layer0_0_MEMBER_1_MEMBER_34_MEMBER_1_FILL">
<path fill="#FEE471" stroke="none" d="
M 326.6 195
Q 326.3 195.1 326.6 195.2
L 330.4 197.4
Q 330.6 197.6 330.8 197.4
L 333.05 196.1
Q 333.35 196 333.05 195.8
L 331.45 194.85
Q 331.25 194.8 331.35 194.6
L 331.4 194.55
Q 331.55 194.4 331.35 194.3
L 329.9 193.45
Q 329.55 193.35 329.45 193.4
L 329.15 193.5 329.05 193.55 326.6 195 Z"/>
</g>

<g id="Layer0_0_MEMBER_1_MEMBER_34_MEMBER_2_FILL">
<path fill="#FEEB91" stroke="none" d="
M 332.9 196.2
Q 333.1 196.1 332.9 196
L 329.05 193.8
Q 328.9 193.65 328.65 193.75
L 326.6 195
Q 326.3 195.1 326.6 195.2
L 330.4 197.4
Q 330.6 197.6 330.8 197.4
L 332.9 196.2 Z"/>
</g>

<g id="Layer0_0_MEMBER_1_MEMBER_35_MEMBER_0_FILL">
<path fill="#F1F2F6" stroke="none" d="
M 335.9 177.85
Q 336.5 177.5 336.55 177 336.6 176.55 336.1 176.25
L 332.9 174.4
Q 332.4 174.1 331.55 174.15 330.75 174.15 330.15 174.5
L 327.35 176.1
Q 326.75 176.5 326.7 176.95 326.65 177.4 327.2 177.7
L 330.35 179.55
Q 330.9 179.85 331.7 179.8 332.5 179.8 333.1 179.45
L 335.9 177.85 Z"/>
</g>

<g id="Layer0_0_MEMBER_1_MEMBER_35_MEMBER_1_FILL">
<path fill="#84D1ED" stroke="none" d="
M 335.7 177.55
Q 336.1 177.3 336.1 176.95 336.1 176.55 335.65 176.3
L 333.9 175.3
Q 332.85 174.65 331.75 175.3
L 330.6 175.95 331.75 176.6
Q 332.2 176.85 332.2 177.2 332.2 177.55 331.8 177.8
L 331.65 177.9 332.3 178.25
Q 332.75 178.5 333.35 178.5 334 178.5 334.4 178.25
L 335.7 177.55 Z"/>
</g>

<g id="Layer0_0_MEMBER_1_MEMBER_35_MEMBER_2_MEMBER_0_FILL">
<path fill="#FFFFFF" stroke="none" d="
M 332.8 176.8
L 332.7 176.7 331.65 177.05 331.75 177.2 332.8 176.8
M 333.15 176.25
L 333 176.25 333.45 176 332.95 175.7 331.3 176.65 331.45 176.75 331.6 176.65 331.95 176.85 332.95 176.25 333 176.6 333.25 176.6 333.15 176.25
M 332.95 175.9
L 333.15 176 331.95 176.7 331.75 176.6 332.95 175.9
M 333.8 176
L 333.6 176 333.6 176.3 333.85 176.3 333.8 176
M 334.9 176.95
L 335.05 176.9 334.25 176.45 334.55 176.4 334.4 176.25
Q 333.95 176.4 333.45 176.4
L 333.45 176.55 333.7 176.5 333.15 176.8 332.95 176.7 332.85 176.75 333 176.85 332.55 177.1 332.4 177.15 333.15 177.6
Q 333 177.7 332.85 177.6
L 332.55 177.4 332.4 177.55 332.7 177.7
Q 333 177.85 333.3 177.7
L 333.5 177.8 333.65 177.7 333.45 177.6 333.9 177.4 334.1 177.5 334.2 177.4 334.05 177.3 334.6 177 333.75 176.5 334.05 176.5 334.9 176.95
M 333.15 176.95
L 333.4 177.1 333.75 177.3 333.3 177.5 332.7 177.2 333.15 176.95
M 333.85 177.2
L 333.3 176.9 333.75 176.7 334.3 177 333.85 177.2
M 333.75 176.8
L 333.65 177.05 333.85 177.1 333.95 176.85 333.75 176.8
M 333.4 177.1
L 333.2 177.1 333.05 177.35 333.25 177.4 333.4 177.1 Z"/>
</g>

<g id="Layer0_0_MEMBER_1_MEMBER_35_MEMBER_3_FILL">
<path fill="#A186C0" stroke="none" d="
M 331.8 177.8
Q 332.2 177.55 332.2 177.2 332.2 176.85 331.75 176.6
L 330.6 175.95 330.5 176
Q 330.1 176.25 330.1 176.6 330.1 177 330.5 177.2
L 331.65 177.9 331.8 177.8 Z"/>
</g>

<g id="Layer0_0_MEMBER_1_MEMBER_35_MEMBER_4_FILL">
<path fill="#FC4E4F" stroke="none" d="
M 331.65 177.9
L 330.5 177.2
Q 330.1 177 330.1 176.6 330.1 176.25 330.5 176
L 330.6 175.95 330.6 175.9
Q 330.15 175.7 329.55 175.7 328.9 175.7 328.45 175.9
L 327.75 176.35
Q 327.3 176.6 327.3 176.95 327.3 177.3 327.75 177.55
L 328.9 178.25
Q 330 178.9 331.05 178.25
L 331.65 177.9 Z"/>
</g>

<g id="Layer0_0_MEMBER_1_MEMBER_35_MEMBER_5_MEMBER_0_FILL">
<path fill="#FFFFFF" stroke="none" d="
M 329.25 176.45
L 329.2 176.4 328.05 176.65 328.25 176.8 328.4 176.75 328.7 176.95 328.65 177 328.85 177.15 329.25 176.45
M 328.65 176.7
L 328.9 176.65 328.8 176.8 328.65 176.7 Z"/>
</g>

<g id="Layer0_0_MEMBER_1_MEMBER_35_MEMBER_5_MEMBER_1_FILL">
<path fill="#FFFFFF" stroke="none" d="
M 330.2 177.1
Q 330.2 177 330.1 176.95
L 329.75 176.75 328.95 177.2 329.35 177.4
Q 329.6 177.65 329.8 177.4
L 329.9 177.25 330.1 177.2
Q 330.2 177.15 330.2 177.1
M 329.85 177.1
L 329.75 177.1 329.65 177.05 329.8 176.95 329.85 177
Q 329.9 177.05 329.85 177.1
M 329.45 177.3
L 329.35 177.2 329.45 177.15 329.6 177.2
Q 329.65 177.25 329.6 177.3
L 329.45 177.3 Z"/>
</g>

<g id="Layer0_0_MEMBER_1_MEMBER_35_MEMBER_5_MEMBER_2_FILL">
<path fill="#FFFFFF" stroke="none" d="
M 330.7 177.6
L 331 177.6
Q 331 177.5 330.8 177.35 330.45 177.15 330.05 177.35 329.7 177.6 330.05 177.8 330.15 177.9 330.45 177.9
L 330.45 177.75 330.25 177.7
Q 330.05 177.6 330.25 177.5 330.45 177.4 330.6 177.5
L 330.7 177.6 Z"/>
</g>

<g id="Layer0_0_MEMBER_1_MEMBER_36_MEMBER_0_FILL">
<path fill="#D2D6E1" stroke="none" d="
M 338.9 197.2
Q 337.65 196.5 336.15 197.35
L 333.4 198.9
Q 332.8 199.3 332.75 199.75 332.7 200.2 333.2 200.5
L 336.4 202.35
Q 336.95 202.65 337.75 202.6 338.55 202.6 339.15 202.25
L 341.9 200.65
Q 342.55 200.3 342.6 199.85 342.65 199.35 342.1 199.05
L 338.9 197.2 Z"/>
</g>

<g id="Layer0_0_MEMBER_1_MEMBER_36_MEMBER_1_FILL">
<path fill="#6E7B9C" stroke="none" d="
M 337.8 199.3
L 337.35 199.05 336.8 199.2
Q 336.65 199.25 336.55 199.15
L 336.25 198.85 335.6 198.85 335.45 199.2
Q 335.45 199.3 335.25 199.3
L 334.6 199.25 334.3 199.55 334.65 199.85
Q 334.75 199.95 334.65 200
L 334.15 200.2 334.35 200.55 335 200.55
Q 335.2 200.65 335.2 200.7
L 335.2 201.05 335.8 201.15 336.2 200.9
Q 336.35 200.8 336.45 200.9
L 337 201.1 337.5 200.9 337.4 200.55
Q 337.35 200.5 337.55 200.4
L 338.15 200.3 338.2 199.95 337.65 199.8
Q 337.5 199.7 337.55 199.65
L 337.8 199.3 Z"/>
</g>

<g id="Layer0_0_MEMBER_1_MEMBER_36_MEMBER_2_FILL">
<path fill="#6E7B9C" stroke="none" d="
M 341.25 199.4
L 340.85 199.3
Q 340.6 199.25 340.6 199.05
L 340.6 198.8 340.1 198.65 339.75 198.8
Q 339.5 198.9 339.3 198.8
L 338.9 198.65 338.4 198.85 338.45 199.1
Q 338.55 199.25 338.25 199.35
L 337.85 199.45 337.85 199.8 338.25 199.9
Q 338.55 200 338.5 200.1
L 338.5 200.35 339 200.55 339.35 200.4
Q 339.6 200.25 339.85 200.4
L 340.2 200.5 340.7 200.35 340.65 200.1
Q 340.55 199.95 340.85 199.85
L 341.25 199.75 341.25 199.4 Z"/>
</g>

<g id="Layer0_0_MEMBER_1_MEMBER_36_MEMBER_3_FILL">
<path fill="#D2D6E1" stroke="none" d="
M 336.75 200.3
Q 337 200.2 337 200 337 199.8 336.75 199.7 336.25 199.35 335.65 199.65 335.4 199.8 335.4 200 335.4 200.2 335.65 200.3 336.2 200.65 336.75 200.3 Z"/>
</g>

<g id="Layer0_0_MEMBER_1_MEMBER_36_MEMBER_4_FILL">
<path fill="#D2D6E1" stroke="none" d="
M 340 199.85
Q 340.2 199.75 340.2 199.6 340.2 199.45 340 199.35 339.6 199.1 339.1 199.3 338.65 199.6 339.1 199.85 339.55 200.1 340 199.85 Z"/>
</g>

<g id="Layer0_0_MEMBER_1_MEMBER_37_MEMBER_0_FILL">
<path fill="#FFFFFF" stroke="none" d="
M 353.95 171
Q 354.35 171.25 354.35 171.55 354.35 171.9 353.95 172.1 353.45 172.3 353.15 172.3
L 349 172.7 351.05 173.9 351.15 173.85 349.35 172.8 353.2 172.4
Q 353.8 172.3 354.05 172.15 354.5 171.9 354.5 171.55 354.5 171.15 354.05 170.9 353 170.25 351.9 170.9
L 352 170.95
Q 353 170.4 353.95 171 Z"/>
</g>

<g id="Layer0_0_MEMBER_1_MEMBER_37_MEMBER_1_FILL">
<path fill="#FFFFFF" stroke="none" d="
M 356.9 172.55
L 352.8 174.9 352.95 175 357 172.65 356.9 172.55 Z"/>
</g>

<g id="Layer0_0_MEMBER_1_MEMBER_37_MEMBER_2_FILL">
<path fill="#FFFFFF" stroke="none" d="
M 354.7 175.75
Q 354.6 175.65 354.45 175.75 354.35 175.85 354.5 175.9
L 354.7 175.9
Q 354.8 175.85 354.7 175.75
M 356.65 174.65
Q 356.5 174.55 356.4 174.65 356.35 174.75 356.4 174.75 356.5 174.85 356.65 174.75 356.7 174.75 356.65 174.65 Z"/>
</g>

<g id="Layer0_0_MEMBER_1_MEMBER_37_MEMBER_3_FILL">
<path fill="#FFFFFF" stroke="none" d="
M 360.25 174.5
L 360.1 174.55 361.6 175.4 358 175.75 358 175.85
Q 358.5 175.85 358.9 176.1 359.3 176.35 359.3 176.65 359.3 177 358.9 177.2 357.95 177.75 356.95 177.2 356.65 177 356.55 176.65
L 356.4 176.65
Q 356.5 177.1 356.85 177.25 357.95 177.9 359 177.25 359.45 177 359.45 176.65 359.45 176.25 359 176
L 358.4 175.8 361.7 175.5 361.9 175.45 360.25 174.5 Z"/>
</g>

<g id="Layer0_0_MEMBER_1_MEMBER_37_MEMBER_4_FILL">
<path fill="#FFFFFF" stroke="none" d="
M 361.85 179.15
L 361 179.65 361.15 179.7 362 179.2 362.75 179.65 362.85 179.6 362.1 179.15 365.2 177.35 365.05 177.3 359.6 177.85 361.85 179.15
M 362 179.1
L 359.9 177.9 364.95 177.4 362 179.1 Z"/>
</g>

<g id="Layer0_0_MEMBER_1_MEMBER_38_MEMBER_0_FILL">
<path fill="#FFFFFF" stroke="none" d="
M 347 173.95
L 347.3 174.1 347.5 174 347.2 173.85 347.35 173.75 347.7 173.95 347.9 173.85 347.3 173.5 346.4 174.05 346.65 174.15 347 173.95 Z"/>
</g>

<g id="Layer0_0_MEMBER_1_MEMBER_38_MEMBER_1_FILL">
<path fill="#FFFFFF" stroke="none" d="
M 348.45 174.15
L 348.05 173.95 347.15 174.45 347.4 174.6 347.65 174.45 347.8 174.55 347.7 174.75 347.95 174.9 348.1 174.6 348.45 174.55
Q 348.6 174.5 348.6 174.35 348.6 174.25 348.45 174.15
M 348.1 174.2
L 348.25 174.25
Q 348.55 174.4 348.25 174.4 348.15 174.55 348 174.4
L 347.85 174.35 348.1 174.2 Z"/>
</g>

<g id="Layer0_0_MEMBER_1_MEMBER_38_MEMBER_2_FILL">
<path fill="#FFFFFF" stroke="none" d="
M 349 174.45
L 348.1 175 348.3 175.15 349.25 174.6 349 174.45 Z"/>
</g>

<g id="Layer0_0_MEMBER_1_MEMBER_38_MEMBER_3_FILL">
<path fill="#FFFFFF" stroke="none" d="
M 349.75 174.9
L 349.4 174.7 348.5 175.25 348.85 175.45
Q 349.3 175.7 349.75 175.45 350.2 175.2 349.75 174.9
M 349.6 175.2
Q 349.6 175.25 349.5 175.3 349.3 175.4 349.1 175.3
L 349 175.25 349.4 175 349.5 175.05
Q 349.6 175.1 349.6 175.2 Z"/>
</g>

<g id="Layer0_0_MEMBER_1_MEMBER_38_MEMBER_4_FILL">
<path fill="#FFFFFF" stroke="none" d="
M 349.4 175.75
L 349.6 175.9 349.8 175.85 350.15 176.05 350.1 176.15 350.35 176.3 350.8 175.5 350.7 175.45 349.4 175.75 Z"/>
</g>

<g id="Layer0_0_MEMBER_1_MEMBER_38_MEMBER_5_FILL">
<path fill="#FFFFFF" stroke="none" d="
M 352.15 176.3
L 351.85 176.1 351.4 176.2 351.5 175.9 351.25 175.75 351 176.3 350.65 176.5 350.9 176.6 351.25 176.4 352.15 176.3 Z"/>
</g>

<g id="Layer0_0_MEMBER_1_MEMBER_38_MEMBER_6_FILL">
<path fill="#FFFFFF" stroke="none" d="
M 353.1 176.85
Q 352.8 176.65 352.5 176.85
L 352.7 176.95
Q 352.8 176.85 352.9 176.95 352.95 177.05 352.9 177.05
L 352.75 177.1 351.85 177.2 352.5 177.55 352.7 177.45 352.45 177.3 353.1 177.2
Q 353.35 177.05 353.1 176.85 Z"/>
</g>

<g id="Layer0_0_MEMBER_1_MEMBER_38_MEMBER_7_FILL">
<path fill="#FFFFFF" stroke="none" d="
M 354.25 177.5
L 353.55 177.1 353.35 177.2 353.85 177.5 352.7 177.65 352.9 177.8 354.05 177.6 354.25 177.5 Z"/>
</g>

<g id="Layer0_0_MEMBER_1_MEMBER_38_MEMBER_8_FILL">
<path fill="#FFFFFF" stroke="none" d="
M 354.75 178.85
L 355 178.95 355.9 178.45 355.8 178.4 355.1 178.35 355.05 177.95 354.95 177.9 354 178.4 354.25 178.55 354.75 178.3 354.75 178.55 355.2 178.55 354.75 178.85 Z"/>
</g>

<g id="Layer0_0_MEMBER_1_MEMBER_38_MEMBER_9_FILL">
<path fill="#FFFFFF" stroke="none" d="
M 356.45 178.75
L 355.1 179.05 355.35 179.2 355.5 179.15 355.9 179.35 355.85 179.45 356.05 179.6 356.55 178.85 356.45 178.75
M 355.8 179.1
L 356.1 179.05 356 179.2 355.8 179.1 Z"/>
</g>

<g id="Layer0_0_MEMBER_1_MEMBER_38_MEMBER_10_FILL">
<path fill="#FFFFFF" stroke="none" d="
M 357.5 179.35
L 357.1 179.15 356.2 179.7 356.45 179.8 356.7 179.7 356.85 179.75 356.75 180 357 180.15 357.15 179.85 357.5 179.75
Q 357.8 179.6 357.5 179.35
M 357.3 179.5
Q 357.4 179.6 357.3 179.65 357.15 179.75 357.05 179.65
L 356.9 179.55 357.15 179.4 357.3 179.5 Z"/>
</g>

<g id="Layer0_0_MEMBER_1_MEMBER_38_MEMBER_11_FILL">
<path fill="#FFFFFF" stroke="none" d="
M 358.3 180.2
L 358.65 180.2
Q 358.65 180.1 358.45 179.9 358 179.7 357.55 179.9 357.1 180.2 357.55 180.45
L 358 180.55 358 180.35 357.75 180.3
Q 357.55 180.2 357.8 180.05 358 179.95 358.2 180.05
L 358.3 180.2 Z"/>
</g>

<g id="Layer0_0_MEMBER_1_MEMBER_38_MEMBER_12_FILL">
<path fill="#FFFFFF" stroke="none" d="
M 359.2 180.35
L 358.95 180.2 358.05 180.75 358.3 180.9 358.65 180.7 358.9 180.85 358.55 181.05 358.8 181.2 359.75 180.65 359.5 180.5 359.15 180.7 358.85 180.55 359.2 180.35 Z"/>
</g>
</defs>

<g transform="matrix( 7, 0, 0, 7, -1867.45,-791) ">
<use xlink:href="#Layer0_0_MEMBER_0_FILL"/>
</g>

<g transform="matrix( 7, 0, 0, 7, -1867.45,-791) ">
<use xlink:href="#Layer0_0_MEMBER_1_MEMBER_0_FILL"/>
</g>

<g transform="matrix( 7, 0, 0, 7, -1867.45,-791) ">
<use xlink:href="#Layer0_0_MEMBER_1_MEMBER_1_FILL"/>
</g>

<g transform="matrix( 7, 0, 0, 7, -1867.45,-791) ">
<use xlink:href="#Layer0_0_MEMBER_1_MEMBER_2_FILL"/>
</g>

<g transform="matrix( 7, 0, 0, 7, -1867.45,-791) ">
<use xlink:href="#Layer0_0_MEMBER_1_MEMBER_3_FILL"/>
</g>

<g transform="matrix( 7, 0, 0, 7, -1867.45,-791) ">
<use xlink:href="#Layer0_0_MEMBER_1_MEMBER_4_FILL"/>
</g>

<g transform="matrix( 7, 0, 0, 7, -1867.45,-791) ">
<use xlink:href="#Layer0_0_MEMBER_1_MEMBER_5_FILL"/>
</g>

<g transform="matrix( 7, 0, 0, 7, -1867.45,-791) ">
<use xlink:href="#Layer0_0_MEMBER_1_MEMBER_6_FILL"/>
</g>

<g transform="matrix( 7, 0, 0, 7, -1867.45,-791) ">
<use xlink:href="#Layer0_0_MEMBER_1_MEMBER_7_FILL"/>
</g>

<g transform="matrix( 7, 0, 0, 7, -1867.45,-791) ">
<use xlink:href="#Layer0_0_MEMBER_1_MEMBER_8_FILL"/>
</g>

<g transform="matrix( 7, 0, 0, 7, -1867.45,-791) ">
<use xlink:href="#Layer0_0_MEMBER_1_MEMBER_9_FILL"/>
</g>

<g transform="matrix( 7, 0, 0, 7, -1867.45,-791) ">
<use xlink:href="#Layer0_0_MEMBER_1_MEMBER_10_FILL"/>
</g>

<g transform="matrix( 7, 0, 0, 7, -1867.45,-791) ">
<use xlink:href="#Layer0_0_MEMBER_1_MEMBER_11_FILL"/>
</g>

<g transform="matrix( 7, 0, 0, 7, -1867.45,-791) ">
<use xlink:href="#Layer0_0_MEMBER_1_MEMBER_12_FILL"/>
</g>

<g transform="matrix( 7, 0, 0, 7, -1867.45,-791) ">
<use xlink:href="#Layer0_0_MEMBER_1_MEMBER_13_MEMBER_0_FILL"/>
</g>

<g transform="matrix( 7, 0, 0, 7, -1867.45,-791) ">
<use xlink:href="#Layer0_0_MEMBER_1_MEMBER_13_MEMBER_1_FILL"/>
</g>

<g transform="matrix( 7, 0, 0, 7, -1867.45,-791) ">
<use xlink:href="#Layer0_0_MEMBER_1_MEMBER_14_MEMBER_0_FILL"/>
</g>

<g transform="matrix( 7, 0, 0, 7, -1867.45,-791) ">
<use xlink:href="#Layer0_0_MEMBER_1_MEMBER_14_MEMBER_1_FILL"/>
</g>

<g transform="matrix( 7, 0, 0, 7, -1867.45,-791) ">
<use xlink:href="#Layer0_0_MEMBER_1_MEMBER_15_FILL"/>
</g>

<g transform="matrix( 7, 0, 0, 7, -1867.45,-791) ">
<use xlink:href="#Layer0_0_MEMBER_1_MEMBER_16_FILL"/>
</g>

<g transform="matrix( 7, 0, 0, 7, -1867.45,-791) ">
<use xlink:href="#Layer0_0_MEMBER_1_MEMBER_17_MEMBER_0_FILL"/>
</g>

<g transform="matrix( 7, 0, 0, 7, -1867.45,-791) ">
<use xlink:href="#Layer0_0_MEMBER_1_MEMBER_18_MEMBER_0_FILL"/>
</g>

<g transform="matrix( 7, 0, 0, 7, -1867.45,-791) ">
<use xlink:href="#Layer0_0_MEMBER_1_MEMBER_18_MEMBER_1_FILL"/>
</g>

<g transform="matrix( 7, 0, 0, 7, -1867.45,-791) ">
<use xlink:href="#Layer0_0_MEMBER_1_MEMBER_18_MEMBER_2_FILL"/>
</g>

<g transform="matrix( 7, 0, 0, 7, -1867.45,-791) ">
<use xlink:href="#Layer0_0_MEMBER_1_MEMBER_18_MEMBER_3_FILL"/>
</g>

<g transform="matrix( 7, 0, 0, 7, -1867.45,-791) ">
<use xlink:href="#Layer0_0_MEMBER_1_MEMBER_19_MEMBER_0_FILL"/>
</g>

<g transform="matrix( 7, 0, 0, 7, -1867.45,-791) ">
<use xlink:href="#Layer0_0_MEMBER_1_MEMBER_19_MEMBER_1_FILL"/>
</g>

<g transform="matrix( 7, 0, 0, 7, -1867.45,-791) ">
<use xlink:href="#Layer0_0_MEMBER_1_MEMBER_19_MEMBER_2_FILL"/>
</g>

<g transform="matrix( 7, 0, 0, 7, -1867.45,-791) ">
<use xlink:href="#Layer0_0_MEMBER_1_MEMBER_19_MEMBER_3_FILL"/>
</g>

<g transform="matrix( 7, 0, 0, 7, -1867.45,-791) ">
<use xlink:href="#Layer0_0_MEMBER_1_MEMBER_19_MEMBER_4_FILL"/>
</g>

<g transform="matrix( 7, 0, 0, 7, -1867.45,-791) ">
<use xlink:href="#Layer0_0_MEMBER_1_MEMBER_19_MEMBER_5_FILL"/>
</g>

<g transform="matrix( 7, 0, 0, 7, -1867.45,-791) ">
<use xlink:href="#Layer0_0_MEMBER_1_MEMBER_19_MEMBER_6_FILL"/>
</g>

<g transform="matrix( 7, 0, 0, 7, -1867.45,-791) ">
<use xlink:href="#Layer0_0_MEMBER_1_MEMBER_19_MEMBER_7_FILL"/>
</g>

<g transform="matrix( 7, 0, 0, 7, -1867.45,-791) ">
<use xlink:href="#Layer0_0_MEMBER_1_MEMBER_19_MEMBER_8_FILL"/>
</g>

<g transform="matrix( 7, 0, 0, 7, -1867.45,-791) ">
<use xlink:href="#Layer0_0_MEMBER_1_MEMBER_19_MEMBER_9_FILL"/>
</g>

<g transform="matrix( 7, 0, 0, 7, -1867.45,-791) ">
<use xlink:href="#Layer0_0_MEMBER_1_MEMBER_19_MEMBER_10_FILL"/>
</g>

<g transform="matrix( 7, 0, 0, 7, -1867.45,-791) ">
<use xlink:href="#Layer0_0_MEMBER_1_MEMBER_19_MEMBER_11_FILL"/>
</g>

<g transform="matrix( 7, 0, 0, 7, -1867.45,-791) ">
<use xlink:href="#Layer0_0_MEMBER_1_MEMBER_19_MEMBER_12_FILL"/>
</g>

<g transform="matrix( 7, 0, 0, 7, -1867.45,-791) ">
<use xlink:href="#Layer0_0_MEMBER_1_MEMBER_19_MEMBER_13_FILL"/>
</g>

<g transform="matrix( 7, 0, 0, 7, -1867.45,-791) ">
<use xlink:href="#Layer0_0_MEMBER_1_MEMBER_19_MEMBER_14_FILL"/>
</g>

<g transform="matrix( 7, 0, 0, 7, -1867.45,-791) ">
<use xlink:href="#Layer0_0_MEMBER_1_MEMBER_19_MEMBER_15_FILL"/>
</g>

<g transform="matrix( 7, 0, 0, 7, -1867.45,-791) ">
<use xlink:href="#Layer0_0_MEMBER_1_MEMBER_20_MEMBER_0_FILL"/>
</g>

<g transform="matrix( 7, 0, 0, 7, -1867.45,-791) ">
<use xlink:href="#Layer0_0_MEMBER_1_MEMBER_20_MEMBER_1_MEMBER_0_MEMBER_0_FILL"/>
</g>

<g transform="matrix( 7, 0, 0, 7, -1867.45,-791) ">
<use xlink:href="#Layer0_0_MEMBER_1_MEMBER_20_MEMBER_1_MEMBER_0_MEMBER_1_FILL"/>
</g>

<g transform="matrix( 7, 0, 0, 7, -1867.45,-791) ">
<use xlink:href="#Layer0_0_MEMBER_1_MEMBER_20_MEMBER_1_MEMBER_0_MEMBER_2_FILL"/>
</g>

<g transform="matrix( 7, 0, 0, 7, -1867.45,-791) ">
<use xlink:href="#Layer0_0_MEMBER_1_MEMBER_20_MEMBER_1_MEMBER_0_MEMBER_3_FILL"/>
</g>

<g transform="matrix( 7, 0, 0, 7, -1867.45,-791) ">
<use xlink:href="#Layer0_0_MEMBER_1_MEMBER_20_MEMBER_1_MEMBER_1_FILL"/>
</g>

<g transform="matrix( 7, 0, 0, 7, -1867.45,-791) ">
<use xlink:href="#Layer0_0_MEMBER_1_MEMBER_21_MEMBER_0_FILL"/>
</g>

<g transform="matrix( 7, 0, 0, 7, -1867.45,-791) ">
<use xlink:href="#Layer0_0_MEMBER_1_MEMBER_21_MEMBER_1_FILL"/>
</g>

<g transform="matrix( 7, 0, 0, 7, -1867.45,-791) ">
<use xlink:href="#Layer0_0_MEMBER_1_MEMBER_21_MEMBER_2_FILL"/>
</g>

<g transform="matrix( 7, 0, 0, 7, -1867.45,-791) ">
<use xlink:href="#Layer0_0_MEMBER_1_MEMBER_21_MEMBER_3_FILL"/>
</g>

<g transform="matrix( 7, 0, 0, 7, -1867.45,-791) ">
<use xlink:href="#Layer0_0_MEMBER_1_MEMBER_21_MEMBER_4_FILL"/>
</g>

<g transform="matrix( 7, 0, 0, 7, -1867.45,-791) ">
<use xlink:href="#Layer0_0_MEMBER_1_MEMBER_22_MEMBER_0_FILL"/>
</g>

<g transform="matrix( 7, 0, 0, 7, -1867.45,-791) ">
<use xlink:href="#Layer0_0_MEMBER_1_MEMBER_22_MEMBER_1_FILL"/>
</g>

<g transform="matrix( 7, 0, 0, 7, -1867.45,-791) ">
<use xlink:href="#Layer0_0_MEMBER_1_MEMBER_23_MEMBER_0_FILL"/>
</g>

<g transform="matrix( 7, 0, 0, 7, -1867.45,-791) ">
<use xlink:href="#Layer0_0_MEMBER_1_MEMBER_23_MEMBER_1_FILL"/>
</g>

<g transform="matrix( 7, 0, 0, 7, -1867.45,-791) ">
<use xlink:href="#Layer0_0_MEMBER_1_MEMBER_23_MEMBER_2_MEMBER_0_FILL"/>
</g>

<g transform="matrix( 7, 0, 0, 7, -1867.45,-791) ">
<use xlink:href="#Layer0_0_MEMBER_1_MEMBER_23_MEMBER_2_MEMBER_1_FILL"/>
</g>

<g transform="matrix( 7, 0, 0, 7, -1867.45,-791) ">
<use xlink:href="#Layer0_0_MEMBER_1_MEMBER_24_MEMBER_0_FILL"/>
</g>

<g transform="matrix( 7, 0, 0, 7, -1867.45,-791) ">
<use xlink:href="#Layer0_0_MEMBER_1_MEMBER_24_MEMBER_1_MEMBER_0_FILL"/>
</g>

<g transform="matrix( 7, 0, 0, 7, -1867.45,-791) ">
<use xlink:href="#Layer0_0_MEMBER_1_MEMBER_24_MEMBER_1_MEMBER_1_FILL"/>
</g>

<g transform="matrix( 7, 0, 0, 7, -1867.45,-791) ">
<use xlink:href="#Layer0_0_MEMBER_1_MEMBER_24_MEMBER_1_MEMBER_2_FILL"/>
</g>

<g transform="matrix( 7, 0, 0, 7, -1867.45,-791) ">
<use xlink:href="#Layer0_0_MEMBER_1_MEMBER_25_MEMBER_0_FILL"/>
</g>

<g transform="matrix( 7, 0, 0, 7, -1867.45,-791) ">
<use xlink:href="#Layer0_0_MEMBER_1_MEMBER_25_MEMBER_1_FILL"/>
</g>

<g transform="matrix( 7, 0, 0, 7, -1867.45,-791) ">
<use xlink:href="#Layer0_0_MEMBER_1_MEMBER_25_MEMBER_2_FILL"/>
</g>

<g transform="matrix( 7, 0, 0, 7, -1867.45,-791) ">
<use xlink:href="#Layer0_0_MEMBER_1_MEMBER_25_MEMBER_3_FILL"/>
</g>

<g transform="matrix( 7, 0, 0, 7, -1867.45,-791) ">
<use xlink:href="#Layer0_0_MEMBER_1_MEMBER_25_MEMBER_4_FILL"/>
</g>

<g transform="matrix( 7, 0, 0, 7, -1867.45,-791) ">
<use xlink:href="#Layer0_0_MEMBER_1_MEMBER_25_MEMBER_5_FILL"/>
</g>

<g transform="matrix( 7, 0, 0, 7, -1867.45,-791) ">
<use xlink:href="#Layer0_0_MEMBER_1_MEMBER_25_MEMBER_6_FILL"/>
</g>

<g transform="matrix( 7, 0, 0, 7, -1867.45,-791) ">
<use xlink:href="#Layer0_0_MEMBER_1_MEMBER_26_MEMBER_0_FILL"/>
</g>

<g transform="matrix( 7, 0, 0, 7, -1867.45,-791) ">
<use xlink:href="#Layer0_0_MEMBER_1_MEMBER_26_MEMBER_1_FILL"/>
</g>

<g transform="matrix( 7, 0, 0, 7, -1867.45,-791) ">
<use xlink:href="#Layer0_0_MEMBER_1_MEMBER_26_MEMBER_2_FILL"/>
</g>

<g transform="matrix( 7, 0, 0, 7, -1867.45,-791) ">
<use xlink:href="#Layer0_0_MEMBER_1_MEMBER_26_MEMBER_3_FILL"/>
</g>

<g transform="matrix( 7, 0, 0, 7, -1867.45,-791) ">
<use xlink:href="#Layer0_0_MEMBER_1_MEMBER_26_MEMBER_4_FILL"/>
</g>

<g transform="matrix( 7, 0, 0, 7, -1867.45,-791) ">
<use xlink:href="#Layer0_0_MEMBER_1_MEMBER_26_MEMBER_5_FILL"/>
</g>

<g transform="matrix( 7, 0, 0, 7, -1867.45,-791) ">
<use xlink:href="#Layer0_0_MEMBER_1_MEMBER_26_MEMBER_6_FILL"/>
</g>

<g transform="matrix( 7, 0, 0, 7, -1867.45,-791) ">
<use xlink:href="#Layer0_0_MEMBER_1_MEMBER_27_MEMBER_0_FILL"/>
</g>

<g transform="matrix( 7, 0, 0, 7, -1867.45,-791) ">
<use xlink:href="#Layer0_0_MEMBER_1_MEMBER_27_MEMBER_1_FILL"/>
</g>

<g transform="matrix( 7, 0, 0, 7, -1867.45,-791) ">
<use xlink:href="#Layer0_0_MEMBER_1_MEMBER_27_MEMBER_2_FILL"/>
</g>

<g transform="matrix( 7, 0, 0, 7, -1867.45,-791) ">
<use xlink:href="#Layer0_0_MEMBER_1_MEMBER_27_MEMBER_3_FILL"/>
</g>

<g transform="matrix( 7, 0, 0, 7, -1867.45,-791) ">
<use xlink:href="#Layer0_0_MEMBER_1_MEMBER_27_MEMBER_4_FILL"/>
</g>

<g transform="matrix( 7, 0, 0, 7, -1867.45,-791) ">
<use xlink:href="#Layer0_0_MEMBER_1_MEMBER_27_MEMBER_5_MEMBER_0_FILL"/>
</g>

<g transform="matrix( 7, 0, 0, 7, -1867.45,-791) ">
<use xlink:href="#Layer0_0_MEMBER_1_MEMBER_27_MEMBER_5_MEMBER_1_FILL"/>
</g>

<g transform="matrix( 7, 0, 0, 7, -1867.45,-791) ">
<use xlink:href="#Layer0_0_MEMBER_1_MEMBER_27_MEMBER_6_FILL"/>
</g>

<g transform="matrix( 7, 0, 0, 7, -1867.45,-791) ">
<use xlink:href="#Layer0_0_MEMBER_1_MEMBER_28_MEMBER_0_FILL"/>
</g>

<g transform="matrix( 7, 0, 0, 7, -1867.45,-791) ">
<use xlink:href="#Layer0_0_MEMBER_1_MEMBER_28_MEMBER_1_MEMBER_0_FILL"/>
</g>

<g transform="matrix( 7, 0, 0, 7, -1867.45,-791) ">
<use xlink:href="#Layer0_0_MEMBER_1_MEMBER_28_MEMBER_1_MEMBER_1_FILL"/>
</g>

<g transform="matrix( 7, 0, 0, 7, -1867.45,-791) ">
<use xlink:href="#Layer0_0_MEMBER_1_MEMBER_28_MEMBER_1_MEMBER_2_FILL"/>
</g>

<g transform="matrix( 7, 0, 0, 7, -1867.45,-791) ">
<use xlink:href="#Layer0_0_MEMBER_1_MEMBER_28_MEMBER_1_MEMBER_3_FILL"/>
</g>

<g transform="matrix( 7, 0, 0, 7, -1867.45,-791) ">
<use xlink:href="#Layer0_0_MEMBER_1_MEMBER_28_MEMBER_1_MEMBER_4_FILL"/>
</g>

<g transform="matrix( 7, 0, 0, 7, -1867.45,-791) ">
<use xlink:href="#Layer0_0_MEMBER_1_MEMBER_28_MEMBER_1_MEMBER_5_FILL"/>
</g>

<g transform="matrix( 7, 0, 0, 7, -1867.45,-791) ">
<use xlink:href="#Layer0_0_MEMBER_1_MEMBER_29_MEMBER_0_MEMBER_0_FILL"/>
</g>

<g transform="matrix( 7, 0, 0, 7, -1867.45,-791) ">
<use xlink:href="#Layer0_0_MEMBER_1_MEMBER_29_MEMBER_0_MEMBER_1_FILL"/>
</g>

<g transform="matrix( 7, 0, 0, 7, -1867.45,-791) ">
<use xlink:href="#Layer0_0_MEMBER_1_MEMBER_30_MEMBER_0_FILL"/>
</g>

<g transform="matrix( 7, 0, 0, 7, -1867.45,-791) ">
<use xlink:href="#Layer0_0_MEMBER_1_MEMBER_30_MEMBER_1_MEMBER_0_MEMBER_0_MEMBER_0_FILL"/>
</g>

<g transform="matrix( 7, 0, 0, 7, -1867.45,-791) ">
<use xlink:href="#Layer0_0_MEMBER_1_MEMBER_30_MEMBER_1_MEMBER_0_MEMBER_0_MEMBER_1_FILL"/>
</g>

<g transform="matrix( 7, 0, 0, 7, -1867.45,-791) ">
<use xlink:href="#Layer0_0_MEMBER_1_MEMBER_30_MEMBER_1_MEMBER_0_MEMBER_0_MEMBER_2_FILL"/>
</g>

<g transform="matrix( 7, 0, 0, 7, -1867.45,-791) ">
<use xlink:href="#Layer0_0_MEMBER_1_MEMBER_30_MEMBER_2_FILL"/>
</g>

<g transform="matrix( 7, 0, 0, 7, -1867.45,-791) ">
<use xlink:href="#Layer0_0_MEMBER_1_MEMBER_30_MEMBER_3_MEMBER_0_FILL"/>
</g>

<g transform="matrix( 7, 0, 0, 7, -1867.45,-791) ">
<use xlink:href="#Layer0_0_MEMBER_1_MEMBER_30_MEMBER_3_MEMBER_1_FILL"/>
</g>

<g transform="matrix( 7, 0, 0, 7, -1867.45,-791) ">
<use xlink:href="#Layer0_0_MEMBER_1_MEMBER_31_MEMBER_0_FILL"/>
</g>

<g transform="matrix( 7, 0, 0, 7, -1867.45,-791) ">
<use xlink:href="#Layer0_0_MEMBER_1_MEMBER_31_MEMBER_1_FILL"/>
</g>

<g transform="matrix( 7, 0, 0, 7, -1867.45,-791) ">
<use xlink:href="#Layer0_0_MEMBER_1_MEMBER_32_MEMBER_0_FILL"/>
</g>

<g transform="matrix( 7, 0, 0, 7, -1867.45,-791) ">
<use xlink:href="#Layer0_0_MEMBER_1_MEMBER_32_MEMBER_1_FILL"/>
</g>

<g transform="matrix( 7, 0, 0, 7, -1867.45,-791) ">
<use xlink:href="#Layer0_0_MEMBER_1_MEMBER_32_MEMBER_2_FILL"/>
</g>

<g transform="matrix( 7, 0, 0, 7, -1867.45,-791) ">
<use xlink:href="#Layer0_0_MEMBER_1_MEMBER_33_MEMBER_0_FILL"/>
</g>

<g transform="matrix( 7, 0, 0, 7, -1867.45,-791) ">
<use xlink:href="#Layer0_0_MEMBER_1_MEMBER_33_MEMBER_1_FILL"/>
</g>

<g transform="matrix( 7, 0, 0, 7, -1867.45,-791) ">
<use xlink:href="#Layer0_0_MEMBER_1_MEMBER_33_MEMBER_2_FILL"/>
</g>

<g transform="matrix( 7, 0, 0, 7, -1867.45,-791) ">
<use xlink:href="#Layer0_0_MEMBER_1_MEMBER_33_MEMBER_3_FILL"/>
</g>

<g transform="matrix( 7, 0, 0, 7, -1867.45,-791) ">
<use xlink:href="#Layer0_0_MEMBER_1_MEMBER_33_MEMBER_4_FILL"/>
</g>

<g transform="matrix( 7, 0, 0, 7, -1867.45,-791) ">
<use xlink:href="#Layer0_0_MEMBER_1_MEMBER_33_MEMBER_5_FILL"/>
</g>

<g transform="matrix( 7, 0, 0, 7, -1867.45,-791) ">
<use xlink:href="#Layer0_0_MEMBER_1_MEMBER_34_MEMBER_0_FILL"/>
</g>

<g transform="matrix( 7, 0, 0, 7, -1867.45,-791) ">
<use xlink:href="#Layer0_0_MEMBER_1_MEMBER_34_MEMBER_1_FILL"/>
</g>

<g transform="matrix( 7, 0, 0, 7, -1867.45,-791) ">
<use xlink:href="#Layer0_0_MEMBER_1_MEMBER_34_MEMBER_2_FILL"/>
</g>

<g transform="matrix( 7, 0, 0, 7, -1867.45,-791) ">
<use xlink:href="#Layer0_0_MEMBER_1_MEMBER_35_MEMBER_0_FILL"/>
</g>

<g transform="matrix( 7, 0, 0, 7, -1867.45,-791) ">
<use xlink:href="#Layer0_0_MEMBER_1_MEMBER_35_MEMBER_1_FILL"/>
</g>

<g transform="matrix( 7, 0, 0, 7, -1867.45,-791) ">
<use xlink:href="#Layer0_0_MEMBER_1_MEMBER_35_MEMBER_2_MEMBER_0_FILL"/>
</g>

<g transform="matrix( 7, 0, 0, 7, -1867.45,-791) ">
<use xlink:href="#Layer0_0_MEMBER_1_MEMBER_35_MEMBER_3_FILL"/>
</g>

<g transform="matrix( 7, 0, 0, 7, -1867.45,-791) ">
<use xlink:href="#Layer0_0_MEMBER_1_MEMBER_35_MEMBER_4_FILL"/>
</g>

<g transform="matrix( 7, 0, 0, 7, -1867.45,-791) ">
<use xlink:href="#Layer0_0_MEMBER_1_MEMBER_35_MEMBER_5_MEMBER_0_FILL"/>
</g>

<g transform="matrix( 7, 0, 0, 7, -1867.45,-791) ">
<use xlink:href="#Layer0_0_MEMBER_1_MEMBER_35_MEMBER_5_MEMBER_1_FILL"/>
</g>

<g transform="matrix( 7, 0, 0, 7, -1867.45,-791) ">
<use xlink:href="#Layer0_0_MEMBER_1_MEMBER_35_MEMBER_5_MEMBER_2_FILL"/>
</g>

<g transform="matrix( 7, 0, 0, 7, -1867.45,-791) ">
<use xlink:href="#Layer0_0_MEMBER_1_MEMBER_36_MEMBER_0_FILL"/>
</g>

<g transform="matrix( 7, 0, 0, 7, -1867.45,-791) ">
<use xlink:href="#Layer0_0_MEMBER_1_MEMBER_36_MEMBER_1_FILL"/>
</g>

<g transform="matrix( 7, 0, 0, 7, -1867.45,-791) ">
<use xlink:href="#Layer0_0_MEMBER_1_MEMBER_36_MEMBER_2_FILL"/>
</g>

<g transform="matrix( 7, 0, 0, 7, -1867.45,-791) ">
<use xlink:href="#Layer0_0_MEMBER_1_MEMBER_36_MEMBER_3_FILL"/>
</g>

<g transform="matrix( 7, 0, 0, 7, -1867.45,-791) ">
<use xlink:href="#Layer0_0_MEMBER_1_MEMBER_36_MEMBER_4_FILL"/>
</g>

<g transform="matrix( 7, 0, 0, 7, -1867.45,-791) ">
<use xlink:href="#Layer0_0_MEMBER_1_MEMBER_37_MEMBER_0_FILL"/>
</g>

<g transform="matrix( 7, 0, 0, 7, -1867.45,-791) ">
<use xlink:href="#Layer0_0_MEMBER_1_MEMBER_37_MEMBER_1_FILL"/>
</g>

<g transform="matrix( 7, 0, 0, 7, -1867.45,-791) ">
<use xlink:href="#Layer0_0_MEMBER_1_MEMBER_37_MEMBER_2_FILL"/>
</g>

<g transform="matrix( 7, 0, 0, 7, -1867.45,-791) ">
<use xlink:href="#Layer0_0_MEMBER_1_MEMBER_37_MEMBER_3_FILL"/>
</g>

<g transform="matrix( 7, 0, 0, 7, -1867.45,-791) ">
<use xlink:href="#Layer0_0_MEMBER_1_MEMBER_37_MEMBER_4_FILL"/>
</g>

<g transform="matrix( 7, 0, 0, 7, -1867.45,-791) ">
<use xlink:href="#Layer0_0_MEMBER_1_MEMBER_38_MEMBER_0_FILL"/>
</g>

<g transform="matrix( 7, 0, 0, 7, -1867.45,-791) ">
<use xlink:href="#Layer0_0_MEMBER_1_MEMBER_38_MEMBER_1_FILL"/>
</g>

<g transform="matrix( 7, 0, 0, 7, -1867.45,-791) ">
<use xlink:href="#Layer0_0_MEMBER_1_MEMBER_38_MEMBER_2_FILL"/>
</g>

<g transform="matrix( 7, 0, 0, 7, -1867.45,-791) ">
<use xlink:href="#Layer0_0_MEMBER_1_MEMBER_38_MEMBER_3_FILL"/>
</g>

<g transform="matrix( 7, 0, 0, 7, -1867.45,-791) ">
<use xlink:href="#Layer0_0_MEMBER_1_MEMBER_38_MEMBER_4_FILL"/>
</g>

<g transform="matrix( 7, 0, 0, 7, -1867.45,-791) ">
<use xlink:href="#Layer0_0_MEMBER_1_MEMBER_38_MEMBER_5_FILL"/>
</g>

<g transform="matrix( 7, 0, 0, 7, -1867.45,-791) ">
<use xlink:href="#Layer0_0_MEMBER_1_MEMBER_38_MEMBER_6_FILL"/>
</g>

<g transform="matrix( 7, 0, 0, 7, -1867.45,-791) ">
<use xlink:href="#Layer0_0_MEMBER_1_MEMBER_38_MEMBER_7_FILL"/>
</g>

<g transform="matrix( 7, 0, 0, 7, -1867.45,-791) ">
<use xlink:href="#Layer0_0_MEMBER_1_MEMBER_38_MEMBER_8_FILL"/>
</g>

<g transform="matrix( 7, 0, 0, 7, -1867.45,-791) ">
<use xlink:href="#Layer0_0_MEMBER_1_MEMBER_38_MEMBER_9_FILL"/>
</g>

<g transform="matrix( 7, 0, 0, 7, -1867.45,-791) ">
<use xlink:href="#Layer0_0_MEMBER_1_MEMBER_38_MEMBER_10_FILL"/>
</g>

<g transform="matrix( 7, 0, 0, 7, -1867.45,-791) ">
<use xlink:href="#Layer0_0_MEMBER_1_MEMBER_38_MEMBER_11_FILL"/>
</g>

<g transform="matrix( 7, 0, 0, 7, -1867.45,-791) ">
<use xlink:href="#Layer0_0_MEMBER_1_MEMBER_38_MEMBER_12_FILL"/>
</g>
</svg>
