<?xml version="1.0" standalone="no"?><!DOCTYPE svg PUBLIC "-//W3C//DTD SVG 1.1//EN" "http://www.w3.org/Graphics/SVG/1.1/DTD/svg11.dtd"><svg t="1612535619659" class="icon" viewBox="0 0 1024 1024" version="1.1" xmlns="http://www.w3.org/2000/svg" p-id="3383" xmlns:xlink="http://www.w3.org/1999/xlink" width="200" height="200"><defs><style type="text/css"></style></defs><path d="M810.666667 512a296.32 296.32 0 0 0-42.666667-154.666667v-1.493333l-44.586667-133.546667A106.666667 106.666667 0 0 0 621.226667 149.333333H618.666667V64a21.333333 21.333333 0 0 0-42.666667 0v85.333333h-128V64a21.333333 21.333333 0 0 0-42.666667 0v85.333333h-16.853333a106.666667 106.666667 0 0 0-104.106667 83.626667L256 357.973333a295.893333 295.893333 0 0 0 0 307.626667l27.733333 125.226667A106.666667 106.666667 0 0 0 388.48 874.666667H405.333333v85.333333a21.333333 21.333333 0 0 0 42.666667 0v-85.333333h128v85.333333a21.333333 21.333333 0 0 0 42.666667 0v-85.333333h2.56a106.666667 106.666667 0 0 0 101.12-72.96L768 668.16v-1.493333A296.32 296.32 0 0 0 810.666667 512zM388.48 192h232.746667A64 64 0 0 1 682.666667 235.733333l13.013333 41.6a296.96 296.96 0 0 0-379.733333 10.24l10.026666-45.226666A64 64 0 0 1 388.48 192zM512 256a256 256 0 1 1-256 256 256 256 0 0 1 256-256z m109.226667 576H388.48a64 64 0 0 1-62.506667-50.133333l-10.026666-45.226667a296.96 296.96 0 0 0 379.733333 10.24L682.666667 788.266667A64 64 0 0 1 621.226667 832z" fill="#13227a" p-id="3384"></path><path d="M451.626667 561.066667a64 64 0 0 0 90.453333 0l98.133333-98.133334a21.333333 21.333333 0 0 0-30.08-30.08l-98.133333 98.133334a21.333333 21.333333 0 0 1-30.08 0l-67.84-67.84A21.333333 21.333333 0 0 0 384 493.226667z" fill="#13227a" p-id="3385"></path></svg>